<?xml version="1.0" encoding="UTF-8" ?>
<!DOCTYPE svg PUBLIC "-//W3C//DTD SVG 1.1//EN" "http://www.w3.org/Graphics/SVG/1.1/DTD/svg11.dtd">
<svg width="761pt" height="550pt" viewBox="0 0 761 550" version="1.1" xmlns="http://www.w3.org/2000/svg">
<path fill="#35c0cd" d=" M 0.00 0.00 L 761.00 0.00 L 761.00 229.00 C 507.33 229.00 253.67 229.00 0.00 229.00 L 0.00 0.00 Z" />
<path fill="#000000" d=" M 298.74 95.98 C 299.63 95.99 301.40 96.00 302.28 96.00 C 300.46 104.64 298.55 113.27 296.96 121.95 C 301.78 122.03 306.61 121.99 311.44 122.00 C 311.32 122.73 311.07 124.17 310.94 124.90 C 304.85 125.09 298.76 124.98 292.67 124.98 C 294.76 115.33 296.54 105.61 298.74 95.98 Z" />
<path fill="#0c5995" d=" M 349.40 96.64 C 349.48 96.37 349.65 95.84 349.73 95.57 C 349.62 98.43 349.22 101.27 348.50 104.04 L 347.77 104.09 C 348.20 101.58 348.68 99.08 349.40 96.64 Z" />
<path fill="#265400" d=" M 358.04 96.23 L 358.86 96.01 C 358.69 96.49 358.36 97.45 358.19 97.93 C 358.15 97.51 358.08 96.65 358.04 96.23 Z" />
<path fill="#010003" d=" M 358.86 96.01 C 359.68 96.04 361.32 96.09 362.15 96.12 C 361.43 97.56 361.20 99.16 361.12 100.75 L 360.99 102.02 C 360.71 102.46 360.14 103.33 359.86 103.77 C 359.93 105.22 359.20 105.97 357.66 106.02 C 358.13 103.83 358.12 101.60 358.09 99.38 L 358.19 97.93 C 358.36 97.45 358.69 96.49 358.86 96.01 Z" />
<path fill="#094e90" d=" M 362.15 96.12 C 364.03 96.66 362.97 100.95 361.12 100.75 C 361.20 99.16 361.43 97.56 362.15 96.12 Z" />
<path fill="#000000" d=" M 404.73 95.98 C 409.18 96.04 413.62 95.95 418.08 95.99 C 420.86 95.81 423.76 97.55 424.69 100.23 C 426.20 103.86 424.41 108.09 421.64 110.60 C 416.75 114.12 410.48 112.78 404.87 112.98 C 403.98 116.99 403.22 121.04 402.25 125.03 C 401.37 125.02 399.61 125.01 398.72 125.00 C 400.84 115.35 402.60 105.63 404.73 95.98 Z" />
<path fill="#040201" d=" M 432.96 96.01 C 433.80 96.01 435.50 96.00 436.34 96.00 C 435.88 98.19 435.43 100.39 434.92 102.57 C 433.72 107.11 432.77 111.70 432.05 116.34 L 431.98 116.69 C 431.28 119.47 430.62 122.26 430.21 125.10 C 429.44 125.07 427.89 125.01 427.12 124.98 C 427.76 121.80 428.30 118.59 429.12 115.45 C 429.91 112.62 430.49 109.74 430.92 106.84 L 431.02 106.31 C 431.64 103.51 432.28 100.71 432.68 97.86 C 432.75 97.40 432.89 96.47 432.96 96.01 Z" />
<path fill="#000000" d=" M 346.01 100.23 C 344.83 97.90 348.15 97.57 349.40 96.64 C 348.68 99.08 348.20 101.58 347.77 104.09 L 348.50 104.04 C 349.27 104.00 350.79 103.94 351.55 103.91 C 351.46 104.67 351.27 106.20 351.17 106.97 C 350.26 107.00 348.43 107.06 347.52 107.09 L 347.08 107.11 C 346.38 108.58 346.20 110.21 346.15 111.81 C 346.05 112.49 345.83 113.86 345.72 114.54 C 345.07 116.90 344.40 119.26 343.97 121.67 L 344.94 121.81 C 345.77 121.90 347.44 122.08 348.27 122.17 C 347.93 123.15 347.60 124.14 347.27 125.12 C 345.39 124.91 343.07 125.48 341.89 123.57 C 341.96 121.85 342.03 120.13 342.07 118.41 L 342.16 117.50 C 342.88 114.58 343.59 111.66 343.95 108.67 C 344.01 108.26 344.13 107.46 344.19 107.05 C 343.50 107.04 342.13 107.01 341.44 106.99 C 341.58 106.27 341.85 104.82 341.99 104.10 C 342.64 104.03 343.92 103.91 344.57 103.84 L 345.34 103.00 C 346.14 102.23 346.37 101.31 346.01 100.23 Z" />
<path fill="#62b800" d=" M 431.02 106.31 C 431.29 103.45 431.76 100.59 432.68 97.86 C 432.28 100.71 431.64 103.51 431.02 106.31 Z" />
<path fill="#296119" d=" M 357.66 106.02 C 356.07 104.82 356.32 100.26 358.09 99.38 C 358.12 101.60 358.13 103.83 357.66 106.02 Z" />
<path fill="#35c0cd" d=" M 407.91 99.04 C 411.58 99.06 415.27 98.80 418.94 99.12 C 423.05 100.41 422.03 106.04 419.25 108.20 C 415.37 111.38 410.02 109.52 405.45 110.00 C 406.32 106.36 407.10 102.69 407.91 99.04 Z" />
<path fill="#296217" d=" M 345.34 103.00 C 344.25 101.62 344.47 100.70 346.01 100.23 C 346.37 101.31 346.14 102.23 345.34 103.00 Z" />
<path fill="#093f93" d=" M 359.86 103.77 C 360.14 103.33 360.71 102.46 360.99 102.02 L 361.35 102.87 L 360.76 103.76 L 359.86 103.77 Z" />
<path fill="#095597" d=" M 432.05 116.34 C 432.77 111.70 433.72 107.11 434.92 102.57 C 434.58 107.25 433.89 111.99 432.05 116.34 Z" />
<path fill="#000000" d=" M 319.40 108.33 C 321.43 105.74 324.62 103.75 328.00 103.94 C 331.51 103.81 335.20 106.46 335.63 110.06 C 335.80 111.65 335.74 113.26 335.74 114.86 C 330.48 115.14 325.23 114.88 319.98 115.10 C 320.27 117.33 320.11 120.25 322.51 121.40 C 325.81 123.42 329.56 120.83 331.41 118.03 C 332.20 118.04 333.79 118.06 334.58 118.06 C 333.25 121.25 330.51 123.37 327.59 125.01 C 324.62 125.18 321.30 125.16 319.14 122.77 C 315.42 118.82 316.66 112.66 319.30 108.47 C 319.32 108.44 319.37 108.36 319.40 108.33 Z" />
<path fill="#000000" d=" M 366.53 109.03 C 368.02 101.51 381.54 102.41 381.91 110.21 C 379.24 110.62 377.88 108.41 376.00 107.09 C 373.47 106.52 370.88 107.01 369.17 109.08 C 371.86 111.60 375.66 112.26 378.51 114.52 C 380.49 116.20 380.84 119.32 379.42 121.47 C 375.45 127.91 362.51 125.44 363.51 116.95 C 364.29 116.99 365.85 117.07 366.64 117.11 C 367.08 119.75 369.04 122.41 372.02 122.06 C 374.71 122.62 378.18 120.31 376.65 117.32 C 373.50 114.35 366.39 114.51 366.53 109.03 Z" />
<path fill="#000000" d=" M 440.73 109.85 C 443.29 103.35 453.89 101.33 457.31 108.00 C 457.71 113.76 454.79 119.29 455.80 125.09 C 453.92 125.21 452.08 125.00 451.89 122.71 C 448.67 125.00 443.85 126.37 440.62 123.34 C 437.08 120.52 438.95 114.27 443.17 113.26 C 446.85 112.84 450.45 111.92 454.15 111.74 C 454.14 110.17 454.34 108.20 452.62 107.41 C 449.42 106.00 445.84 107.31 443.74 109.98 C 442.99 109.95 441.48 109.88 440.73 109.85 Z" />
<path fill="#000000" d=" M 464.56 103.95 C 465.40 104.00 467.07 104.09 467.91 104.14 C 468.66 109.64 469.50 115.13 470.19 120.64 C 470.92 119.60 471.63 118.54 472.32 117.48 C 472.35 117.43 472.40 117.35 472.42 117.31 C 474.40 113.74 476.34 110.14 478.26 106.53 C 478.30 106.46 478.39 106.31 478.43 106.23 C 479.09 103.99 481.19 103.80 483.17 103.95 C 479.43 110.89 475.42 117.68 471.66 124.60 C 471.63 124.65 471.58 124.75 471.55 124.80 C 470.11 127.22 468.91 129.89 466.76 131.78 C 465.16 133.26 462.88 132.93 460.89 133.10 C 460.97 132.34 461.15 130.81 461.23 130.04 C 462.45 130.01 463.67 129.99 464.90 129.96 C 466.28 127.85 468.59 125.70 467.70 122.91 C 466.70 116.58 465.54 110.28 464.56 103.95 Z" />
<path fill="#296600" d=" M 478.26 106.53 C 478.30 106.46 478.39 106.31 478.43 106.23 C 478.39 106.31 478.30 106.46 478.26 106.53 Z" />
<path fill="#35c0cd" d=" M 324.24 108.32 C 325.72 106.20 329.42 106.48 331.15 108.15 C 331.56 109.40 331.93 110.66 332.49 111.87 C 328.57 112.09 324.64 112.04 320.72 111.89 L 321.57 111.25 C 322.70 110.51 323.49 109.41 324.24 108.32 Z" />
<path fill="#094e90" d=" M 347.08 107.11 L 347.52 107.09 C 348.55 108.39 348.02 111.80 346.15 111.81 C 346.20 110.21 346.38 108.58 347.08 107.11 Z" />
<path fill="#2f844b" d=" M 429.12 115.45 C 429.19 112.49 429.71 109.55 430.92 106.84 C 430.49 109.74 429.91 112.62 429.12 115.45 Z" />
<path fill="#296600" d=" M 319.30 108.47 C 319.32 108.44 319.37 108.36 319.40 108.33 C 319.37 108.36 319.32 108.44 319.30 108.47 Z" />
<path fill="#0b4f7f" d=" M 321.57 111.25 C 320.26 109.77 322.65 107.05 324.24 108.32 C 323.49 109.41 322.70 110.51 321.57 111.25 Z" />
<path fill="#276a39" d=" M 331.15 108.15 C 333.06 107.34 334.48 111.43 332.49 111.87 C 331.93 110.66 331.56 109.40 331.15 108.15 Z" />
<path fill="#2f844b" d=" M 342.16 117.50 C 342.20 114.47 342.71 111.45 343.95 108.67 C 343.59 111.66 342.88 114.58 342.16 117.50 Z" />
<path fill="#07438a" d=" M 343.97 121.67 C 344.40 119.26 345.07 116.90 345.72 114.54 C 345.47 116.96 345.19 119.39 344.94 121.81 L 343.97 121.67 Z" />
<path fill="#35c0cd" d=" M 443.97 116.23 C 446.94 114.84 450.23 114.89 453.43 115.05 C 452.61 117.12 452.24 119.80 450.03 120.91 C 447.80 122.44 444.29 122.72 442.42 120.48 C 441.86 118.97 442.16 116.68 443.97 116.23 Z" />
<path fill="#09458a" d=" M 430.21 125.10 C 430.62 122.26 431.28 119.47 431.98 116.69 C 431.85 119.57 431.51 122.49 430.21 125.10 Z" />
<path fill="#296600" d=" M 472.32 117.48 C 472.35 117.43 472.40 117.35 472.42 117.31 C 472.40 117.35 472.35 117.43 472.32 117.48 Z" />
<path fill="#308646" d=" M 341.89 123.57 C 339.90 123.40 340.09 118.50 342.07 118.41 C 342.03 120.13 341.96 121.85 341.89 123.57 Z" />
<path fill="#000000" d=" M 485.85 122.01 C 487.19 122.01 488.53 122.02 489.88 122.03 C 489.57 123.00 489.27 123.98 488.97 124.95 C 488.14 124.97 486.47 124.99 485.63 125.01 C 485.71 124.62 485.87 123.85 485.95 123.46 L 485.85 122.01 Z" />
<path fill="#000000" d=" M 498.87 122.01 C 500.20 122.01 501.54 122.02 502.88 122.03 C 502.56 123.01 502.25 124.00 501.95 124.98 C 501.11 124.98 499.44 125.00 498.60 125.00 C 498.69 124.62 498.86 123.85 498.95 123.46 L 498.87 122.01 Z" />
<path fill="#000000" d=" M 512.05 122.01 C 513.32 122.01 514.59 122.01 515.86 122.01 C 515.56 122.99 515.26 123.98 514.97 124.97 C 514.02 124.98 512.12 125.00 511.17 125.01 C 511.39 124.26 511.83 122.76 512.05 122.01 Z" />
<path fill="#000000" d=" M 525.05 122.00 C 526.32 122.01 527.60 122.02 528.88 122.04 C 528.56 123.01 528.25 123.99 527.95 124.98 C 527.01 124.98 525.13 125.00 524.19 125.01 C 524.41 124.26 524.83 122.75 525.05 122.00 Z" />
<path fill="#62b800" d=" M 485.63 125.01 C 484.22 124.19 484.33 123.68 485.95 123.46 C 485.87 123.85 485.71 124.62 485.63 125.01 Z" />
<path fill="#62b800" d=" M 498.60 125.00 C 497.21 124.15 497.33 123.63 498.95 123.46 C 498.86 123.85 498.69 124.62 498.60 125.00 Z" />
<path fill="#00006c" d=" M 471.55 124.80 C 471.58 124.75 471.63 124.65 471.66 124.60 C 471.63 124.65 471.58 124.75 471.55 124.80 Z" />
<path fill="#000000" d=" M 283.77 189.99 C 284.66 190.00 286.44 190.01 287.32 190.01 C 286.44 193.99 285.71 198.00 284.79 201.97 C 289.88 202.01 294.97 202.02 300.05 201.96 C 300.80 198.65 301.29 195.27 302.27 192.02 C 302.42 191.54 302.72 190.57 302.88 190.09 C 303.70 190.05 305.35 189.99 306.17 189.96 C 304.12 199.63 302.02 209.30 300.10 219.00 C 299.20 219.00 297.42 218.99 296.53 218.99 C 297.40 214.32 298.52 209.69 299.38 205.01 C 294.30 205.00 289.22 204.96 284.14 205.05 C 283.27 209.73 282.28 214.38 281.23 219.01 C 280.34 219.00 278.56 218.98 277.67 218.98 C 279.80 209.33 281.70 199.65 283.77 189.99 Z" />
<path fill="#2d7223" d=" M 302.05 190.31 L 302.88 190.09 C 302.72 190.57 302.42 191.54 302.27 192.02 C 302.21 191.59 302.11 190.74 302.05 190.31 Z" />
<path fill="#000000" d=" M 320.05 191.10 C 325.42 188.43 332.65 190.29 335.73 195.52 C 339.27 202.52 336.96 211.97 330.47 216.43 C 328.91 217.45 327.17 218.13 325.51 218.95 C 321.04 219.56 316.06 218.45 313.18 214.75 C 307.79 207.03 311.20 194.63 320.05 191.10 Z" />
<path fill="#000000" d=" M 345.45 190.14 C 353.00 189.88 360.56 189.96 368.12 190.10 C 367.80 191.07 367.49 192.04 367.17 193.01 C 364.10 192.99 361.03 192.99 357.96 193.04 C 356.20 201.03 354.94 209.18 352.74 217.05 C 352.60 217.54 352.31 218.51 352.16 218.99 C 351.37 218.98 349.79 218.94 349.00 218.92 C 350.80 210.28 352.70 201.67 354.40 193.01 C 351.20 193.00 348.00 193.00 344.80 192.99 C 344.96 192.28 345.29 190.85 345.45 190.14 Z" />
<path fill="#000000" d=" M 438.83 195.01 C 442.80 190.04 450.69 188.10 456.09 191.88 C 458.57 193.43 459.43 196.37 460.37 198.97 C 459.52 198.97 457.82 198.99 456.97 198.99 C 455.94 195.95 453.60 192.64 449.98 192.94 C 441.12 192.54 436.18 203.56 438.88 211.06 C 439.79 214.08 442.90 216.28 446.06 216.07 C 450.33 216.30 453.88 212.85 455.28 209.05 C 456.15 209.04 457.91 209.03 458.78 209.02 C 457.29 213.10 454.31 216.80 450.12 218.27 C 444.50 220.75 437.05 217.75 435.30 211.72 C 433.78 206.05 434.81 199.45 438.83 195.01 Z" />
<path fill="#000000" d=" M 477.38 190.25 C 482.32 188.96 488.03 191.04 490.70 195.46 C 494.77 203.32 491.23 214.32 482.98 217.83 C 477.89 220.47 470.90 218.89 467.72 214.06 C 462.47 205.50 467.36 192.52 477.38 190.25 Z" />
<path fill="#000000" d=" M 502.78 189.96 C 503.65 189.97 505.41 189.99 506.28 190.01 C 504.46 198.65 502.54 207.27 500.96 215.96 C 505.77 216.03 510.59 215.99 515.40 216.00 C 515.31 216.72 515.11 218.16 515.01 218.88 C 508.90 219.12 502.79 218.96 496.68 218.99 C 498.76 209.32 500.51 199.58 502.78 189.96 Z" />
<path fill="#000000" d=" M 520.67 218.98 C 522.73 209.32 524.72 199.64 526.83 189.98 C 532.21 190.50 538.25 188.57 543.01 191.90 C 546.00 193.85 547.15 197.62 547.33 201.02 C 547.65 207.28 544.67 213.98 539.13 217.16 C 533.50 220.36 526.81 218.54 520.67 218.98 Z" />
<path fill="#35c0cd" d=" M 315.62 199.54 C 318.24 193.75 326.68 190.23 331.50 195.51 C 336.47 201.88 333.10 212.73 325.63 215.64 C 322.28 216.84 318.31 215.68 316.05 212.96 C 313.28 209.14 313.75 203.77 315.56 199.65 C 315.57 199.62 315.60 199.57 315.62 199.54 Z" />
<path fill="#35c0cd" d=" M 470.63 199.52 C 473.26 193.75 481.67 190.23 486.49 195.51 C 491.47 201.86 488.11 212.70 480.66 215.62 C 477.31 216.85 473.33 215.69 471.06 212.97 C 468.27 209.15 468.75 203.76 470.57 199.64 C 470.58 199.61 470.61 199.55 470.63 199.52 Z" />
<path fill="#35c0cd" d=" M 529.80 193.01 C 533.99 193.31 539.51 191.59 542.30 195.77 C 545.58 202.71 542.97 212.18 536.16 216.04 C 532.42 215.98 528.68 216.02 524.94 215.95 C 526.54 208.30 528.10 200.64 529.80 193.01 Z" />
<path fill="#000000" d=" M 387.92 198.77 C 389.97 197.62 392.38 198.07 394.63 197.99 C 396.64 199.38 399.01 200.72 399.69 203.27 C 401.27 208.87 398.72 215.93 393.07 218.17 C 388.59 220.63 382.08 218.08 381.00 212.94 C 380.06 207.49 382.53 200.97 387.92 198.77 Z" />
<path fill="#296217" d=" M 408.32 200.91 C 407.25 199.48 407.50 198.56 409.07 198.14 C 409.37 199.17 409.13 200.10 408.32 200.91 Z" />
<path fill="#000000" d=" M 409.07 198.14 C 409.64 198.09 410.79 197.99 411.37 197.94 C 411.25 199.25 411.15 200.57 411.05 201.89 C 413.29 199.41 415.98 197.13 419.60 197.92 C 419.11 198.91 418.61 199.91 418.12 200.90 C 412.09 200.00 410.04 206.60 408.64 211.09 C 408.14 212.21 407.53 213.41 407.82 214.69 L 407.96 216.19 C 406.85 216.72 406.51 217.58 406.96 218.78 C 406.38 218.82 405.22 218.88 404.64 218.92 C 404.76 218.30 405.00 217.06 405.11 216.44 C 405.13 214.41 405.58 212.42 406.11 210.47 C 406.96 207.57 407.52 204.61 407.96 201.63 L 408.32 200.91 C 409.13 200.10 409.37 199.17 409.07 198.14 Z" />
<path fill="#00006c" d=" M 315.56 199.65 C 315.57 199.62 315.60 199.57 315.62 199.54 C 315.60 199.57 315.57 199.62 315.56 199.65 Z" />
<path fill="#00006c" d=" M 470.57 199.64 C 470.58 199.61 470.61 199.55 470.63 199.52 C 470.61 199.55 470.58 199.61 470.57 199.64 Z" />
<path fill="#35c0cd" d=" M 389.36 201.36 C 393.08 199.47 397.80 202.96 396.80 207.12 C 397.20 212.64 390.24 219.14 385.36 214.51 C 382.60 210.24 384.67 203.45 389.36 201.36 Z" />
<path fill="#2f844b" d=" M 406.11 210.47 C 406.23 207.44 406.72 204.41 407.96 201.63 C 407.52 204.61 406.96 207.57 406.11 210.47 Z" />
<path fill="#002a76" d=" M 407.82 214.69 C 407.53 213.41 408.14 212.21 408.64 211.09 C 409.85 211.91 409.64 215.07 407.82 214.69 Z" />
<path fill="#318e51" d=" M 404.00 218.82 C 403.25 217.32 403.62 216.52 405.11 216.44 C 405.00 217.06 404.76 218.30 404.64 218.92 L 404.00 218.82 Z" />
<path fill="#001668" d=" M 406.96 218.78 C 406.51 217.58 406.85 216.72 407.96 216.19 C 408.73 217.59 408.39 218.45 406.96 218.78 Z" />
<path fill="#000059" d=" M 352.16 218.99 C 352.31 218.51 352.60 217.54 352.74 217.05 C 352.80 217.48 352.92 218.33 352.98 218.75 L 352.16 218.99 Z" />
<path fill="#ff9a40" d=" M 0.00 229.00 C 253.67 229.00 507.33 229.00 761.00 229.00 L 761.00 550.00 L 0.00 550.00 L 0.00 229.00 Z" />
<path fill="#000000" d=" M 219.65 274.90 C 221.10 273.44 222.76 271.63 225.06 271.95 C 227.15 271.75 228.54 273.75 229.29 275.44 C 227.45 274.09 225.60 272.64 223.18 272.93 C 222.69 273.31 221.73 274.07 221.24 274.45 C 220.28 277.37 220.21 281.03 222.94 283.03 C 223.75 283.03 225.36 283.05 226.17 283.06 C 226.94 282.03 227.69 280.98 228.43 279.93 C 228.79 280.09 229.50 280.43 229.86 280.59 C 228.04 284.65 221.08 285.61 220.10 280.59 C 220.05 279.13 220.03 277.66 219.82 276.22 L 219.65 274.90 Z" />
<path fill="#000022" d=" M 271.28 273.37 C 271.28 272.96 271.30 272.14 271.30 271.73 C 271.50 272.50 271.89 274.03 272.08 274.79 L 273.01 275.35 C 272.61 275.59 271.80 276.07 271.40 276.31 C 271.56 278.96 270.52 282.27 273.22 284.01 C 272.61 284.05 271.40 284.13 270.80 284.17 C 270.95 281.60 271.03 279.01 270.84 276.44 L 269.94 276.01 L 268.98 275.56 L 268.60 275.38 L 270.36 274.94 C 270.59 274.54 271.05 273.76 271.28 273.37 Z" />
<path fill="#870000" d=" M 292.14 271.52 L 293.07 272.79 C 292.93 276.28 292.97 279.76 293.07 283.25 L 292.14 284.48 C 291.89 280.17 291.88 275.83 292.14 271.52 Z" />
<path fill="#000022" d=" M 293.07 272.79 L 293.21 271.70 C 293.23 272.68 293.26 274.64 293.28 275.62 C 294.93 274.99 297.38 274.40 298.26 276.49 C 298.60 278.94 298.61 281.48 298.03 283.90 C 298.04 281.69 298.53 279.23 297.37 277.22 C 296.83 275.59 294.35 275.52 293.71 277.09 C 293.23 279.45 293.45 281.88 293.13 284.26 L 293.07 283.25 C 292.97 279.76 292.93 276.28 293.07 272.79 Z" />
<path fill="#000022" d=" M 371.13 273.01 C 371.20 272.83 371.32 272.47 371.38 272.29 C 371.84 273.58 372.28 274.88 372.84 276.15 L 371.37 276.03 C 371.58 278.76 370.50 282.13 373.16 284.00 C 372.57 284.05 371.39 284.14 370.80 284.19 C 370.62 281.53 371.93 278.12 370.01 275.94 L 368.88 275.25 C 369.21 275.06 369.88 274.67 370.21 274.48 L 371.06 274.38 C 371.08 274.04 371.11 273.35 371.13 273.01 Z" />
<path fill="#000000" d=" M 388.90 271.98 L 390.26 272.02 C 390.27 275.99 390.26 279.97 390.26 283.94 C 388.09 283.46 385.07 284.88 383.77 282.43 C 380.86 279.00 384.70 272.78 389.04 275.61 C 389.00 274.70 388.93 272.89 388.90 271.98 Z" />
<path fill="#570002" d=" M 438.13 271.48 L 438.74 272.49 C 439.09 276.10 439.12 279.76 438.85 283.38 L 438.17 284.58 C 437.89 280.22 437.80 275.83 438.13 271.48 Z" />
<path fill="#000022" d=" M 438.74 272.49 L 439.57 272.22 C 439.46 273.06 439.24 274.76 439.13 275.61 C 442.35 273.53 446.16 276.39 445.31 280.00 C 445.34 283.44 441.64 284.90 438.85 283.38 C 439.12 279.76 439.09 276.10 438.74 272.49 Z" />
<path fill="#570002" d=" M 465.03 271.50 L 466.12 272.16 C 465.92 275.89 466.08 279.64 465.85 283.38 L 465.16 284.58 C 464.78 280.23 464.90 275.86 465.03 271.50 Z" />
<path fill="#000022" d=" M 466.12 272.16 C 466.22 273.30 466.29 274.45 466.33 275.61 C 467.86 275.32 469.98 274.20 471.10 275.94 C 473.46 278.16 472.51 283.44 469.08 284.01 C 468.27 283.85 466.66 283.54 465.85 283.38 C 466.08 279.64 465.92 275.89 466.12 272.16 Z" />
<path fill="#000022" d=" M 484.15 273.32 C 484.13 272.98 484.09 272.31 484.06 271.97 C 484.52 273.15 485.02 274.31 485.56 275.46 L 485.88 276.13 L 484.39 275.99 C 484.59 278.75 483.44 282.19 486.22 284.01 C 485.62 284.05 484.41 284.14 483.81 284.18 C 483.61 281.56 484.96 278.12 483.00 276.02 L 481.95 275.47 C 482.29 275.33 482.96 275.04 483.29 274.90 C 483.51 274.50 483.94 273.72 484.15 273.32 Z" />
<path fill="#12061b" d=" M 528.55 276.26 C 529.83 274.54 531.45 273.12 533.10 271.76 C 533.20 275.81 533.17 279.87 533.16 283.94 L 531.80 284.39 C 532.02 281.22 532.00 278.04 532.00 274.86 C 531.72 274.99 531.16 275.25 530.89 275.38 C 530.30 275.60 529.13 276.04 528.55 276.26 Z" />
<path fill="#000022" d=" M 563.91 271.96 L 565.28 272.03 C 565.28 276.01 565.27 279.98 565.27 283.96 C 562.55 283.95 559.66 284.19 557.79 281.82 C 558.52 280.39 558.23 278.72 557.99 277.21 C 559.39 275.08 561.72 274.44 564.03 275.58 C 564.00 274.68 563.94 272.87 563.91 271.96 Z" />
<path fill="#12061b" d=" M 571.53 276.26 C 572.81 274.54 574.45 273.14 576.10 271.78 C 576.20 275.83 576.17 279.88 576.16 283.93 L 574.80 284.37 C 575.02 281.20 575.00 278.02 575.00 274.85 C 574.72 274.98 574.16 275.25 573.88 275.38 C 573.29 275.60 572.11 276.04 571.53 276.26 Z" />
<path fill="#000022" d=" M 582.19 271.76 C 584.54 271.66 586.93 273.08 587.14 275.60 C 587.31 278.16 587.76 281.35 585.61 283.26 C 584.43 284.55 581.96 284.43 581.17 282.80 C 579.26 279.37 579.70 274.80 582.19 271.76 Z" />
<path fill="#000022" d=" M 591.20 271.76 C 593.27 271.76 595.46 272.68 595.99 274.88 C 596.47 277.89 596.86 281.88 593.95 283.81 C 592.64 284.33 590.84 284.25 590.19 282.83 C 588.26 279.39 588.69 274.80 591.20 271.76 Z" />
<path fill="#000000" d=" M 270.63 273.11 L 271.28 273.37 C 271.05 273.76 270.59 274.54 270.36 274.94 L 269.97 274.03 L 270.63 273.11 Z" />
<path fill="#000000" d=" M 369.80 273.47 C 370.13 273.36 370.80 273.12 371.13 273.01 C 371.11 273.35 371.08 274.04 371.06 274.38 L 370.21 274.48 L 369.80 273.47 Z" />
<path fill="#000000" d=" M 483.52 273.02 L 484.15 273.32 C 483.94 273.72 483.51 274.50 483.29 274.90 L 482.90 273.92 L 483.52 273.02 Z" />
<path fill="#ff9a40" d=" M 581.41 275.27 C 581.42 273.26 583.39 272.94 584.97 272.82 C 586.33 276.12 586.32 279.89 584.97 283.20 C 580.45 283.61 581.07 278.25 581.41 275.27 Z" />
<path fill="#ff9a40" d=" M 590.42 275.22 C 590.45 273.24 592.41 272.96 593.96 272.81 C 595.34 276.12 595.32 279.91 593.96 283.22 C 589.42 283.57 590.08 278.21 590.42 275.22 Z" />
<path fill="#000000" d=" M 232.21 277.11 C 231.64 274.47 236.96 274.02 237.17 276.54 L 237.00 277.12 C 235.69 276.21 233.99 276.00 232.70 277.07 L 232.21 277.11 Z" />
<path fill="#570000" d=" M 239.94 275.03 L 241.46 274.89 C 241.06 278.05 240.93 281.25 241.14 284.43 L 239.94 283.94 C 239.93 280.97 239.93 278.00 239.94 275.03 Z" />
<path fill="#786c3a" d=" M 241.46 274.89 L 241.39 275.71 L 241.34 276.15 L 242.39 276.14 C 241.84 278.89 242.23 281.81 241.14 284.43 C 240.93 281.25 241.06 278.05 241.46 274.89 Z" />
<path fill="#000000" d=" M 241.39 275.71 C 243.05 274.73 244.81 275.05 246.47 275.75 C 248.27 274.68 250.93 274.56 251.19 277.22 L 250.81 277.05 C 249.33 276.02 247.49 275.59 246.40 277.40 L 246.12 277.61 L 245.83 277.47 C 244.97 277.14 243.25 276.48 242.39 276.14 L 241.34 276.15 L 241.39 275.71 Z" />
<path fill="#570006" d=" M 253.16 274.42 L 253.86 275.72 C 254.10 279.31 254.07 282.93 253.68 286.51 L 253.14 287.51 C 252.83 283.15 252.87 278.77 253.16 274.42 Z" />
<path fill="#000000" d=" M 253.86 275.72 C 255.68 275.27 258.27 274.12 259.34 276.39 C 262.29 279.75 258.61 286.32 254.13 283.37 C 254.23 284.22 254.45 285.93 254.55 286.78 L 253.68 286.51 C 254.07 282.93 254.10 279.31 253.86 275.72 Z" />
<path fill="#8b0700" d=" M 261.98 274.91 L 263.18 275.28 C 262.90 277.46 262.84 279.66 263.01 281.86 L 263.11 283.31 C 261.02 281.07 262.29 277.66 261.98 274.91 Z" />
<path fill="#80753f" d=" M 263.18 275.28 C 264.88 276.48 264.53 280.30 263.33 282.02 L 263.01 281.86 C 262.84 279.66 262.90 277.46 263.18 275.28 Z" />
<path fill="#800000" d=" M 267.61 281.80 C 266.45 280.09 266.09 276.18 267.93 275.07 C 268.16 277.24 268.01 279.44 267.94 281.62 L 267.61 281.80 Z" />
<path fill="#87773e" d=" M 267.93 275.07 L 268.60 275.38 L 268.98 275.56 C 269.16 278.53 268.99 281.50 268.70 284.46 L 268.41 283.45 C 268.29 282.99 268.06 282.08 267.94 281.62 C 268.01 279.44 268.16 277.24 267.93 275.07 Z" />
<path fill="#000000" d=" M 276.13 274.81 C 279.36 274.30 281.62 276.88 281.63 279.96 C 279.41 279.99 277.19 280.00 274.98 280.06 C 275.35 283.99 279.24 282.96 281.77 281.95 C 281.08 282.65 280.39 283.36 279.70 284.08 C 277.61 284.19 275.08 284.01 274.38 281.62 C 272.95 279.19 274.71 276.72 276.13 274.81 Z" />
<path fill="#870002" d=" M 283.18 274.47 L 283.83 275.72 C 284.08 278.54 284.01 281.37 284.17 284.19 L 283.00 283.99 C 282.96 280.81 282.89 277.63 283.18 274.47 Z" />
<path fill="#000022" d=" M 283.83 275.72 C 284.66 275.49 286.32 275.02 287.15 274.78 L 287.13 275.70 C 282.95 276.08 284.92 281.34 284.17 284.19 C 284.01 281.37 284.08 278.54 283.83 275.72 Z" />
<path fill="#000000" d=" M 299.68 277.73 C 300.89 275.96 302.64 274.18 304.98 275.13 C 307.42 276.63 306.04 279.90 306.39 282.23 C 306.71 282.68 307.33 283.57 307.64 284.02 C 306.99 283.92 305.68 283.71 305.03 283.61 C 305.07 282.08 305.14 280.55 305.25 279.03 C 303.51 279.78 301.16 279.90 300.75 282.16 C 302.12 282.69 303.58 283.15 304.77 284.06 C 302.00 284.92 300.37 283.59 299.65 281.22 C 300.01 280.72 300.74 279.70 301.10 279.20 C 302.78 279.14 305.49 278.51 305.00 276.27 C 304.34 276.19 303.03 276.04 302.37 275.97 C 301.79 277.09 300.89 277.68 299.68 277.73 Z" />
<path fill="#000000" d=" M 310.29 275.37 C 312.31 274.13 314.59 275.39 316.04 276.91 C 313.84 276.46 311.49 275.30 309.47 276.97 C 310.61 278.35 312.19 279.02 313.94 279.25 C 314.36 279.57 315.19 280.22 315.61 280.54 C 315.96 284.55 309.78 285.50 308.61 281.78 C 309.22 282.08 310.43 282.66 311.04 282.96 C 311.81 282.97 313.34 282.98 314.10 282.99 C 315.53 279.71 310.85 280.35 309.46 278.62 C 308.12 277.80 309.31 275.94 310.29 275.37 Z" />
<path fill="#000022" d=" M 321.33 277.19 C 322.37 274.15 325.84 275.31 328.29 275.10 C 328.29 278.45 328.25 281.79 328.19 285.14 C 326.22 287.23 322.29 288.19 320.73 285.13 C 323.10 285.85 327.01 287.22 327.30 283.40 C 323.09 285.99 319.28 281.01 321.33 277.19 Z" />
<path fill="#000000" d=" M 332.13 274.80 C 335.35 274.35 337.62 276.86 337.63 279.95 C 335.40 279.99 333.18 280.00 330.96 280.06 C 331.39 284.00 335.27 282.96 337.82 281.92 C 337.12 282.61 336.42 283.30 335.72 283.98 C 334.48 283.99 333.24 284.00 332.01 284.02 C 331.23 282.75 330.16 281.59 329.88 280.10 C 329.55 278.01 331.12 276.42 332.13 274.80 Z" />
<path fill="#870000" d=" M 339.16 274.44 L 340.03 276.02 C 340.03 276.23 340.04 276.66 340.05 276.88 C 340.06 279.26 340.03 281.65 340.03 284.04 L 338.98 283.95 C 338.96 280.78 338.90 277.60 339.16 274.44 Z" />
<path fill="#000000" d=" M 340.03 276.02 C 341.27 274.35 344.55 274.39 345.20 276.60 L 345.03 277.08 L 344.56 277.06 C 343.86 276.88 342.46 276.51 341.76 276.33 C 341.33 276.46 340.47 276.74 340.05 276.88 C 340.04 276.66 340.03 276.23 340.03 276.02 Z" />
<path fill="#000000" d=" M 349.20 274.77 C 352.40 274.36 354.61 276.90 354.63 279.96 C 352.42 279.99 350.21 280.00 348.01 280.03 C 348.30 284.02 352.24 282.94 354.77 281.96 C 354.07 282.66 353.38 283.37 352.69 284.09 C 350.91 283.96 348.64 284.31 347.76 282.34 C 345.85 279.81 347.41 276.82 349.20 274.77 Z" />
<path fill="#870002" d=" M 356.19 274.46 L 356.82 275.64 C 357.09 278.48 357.01 281.34 357.17 284.19 L 356.00 283.99 C 355.96 280.81 355.89 277.62 356.19 274.46 Z" />
<path fill="#000022" d=" M 356.82 275.64 C 357.75 275.45 359.61 275.05 360.54 274.85 C 356.44 276.33 357.59 280.77 357.17 284.19 C 357.01 281.34 357.09 278.48 356.82 275.64 Z" />
<path fill="#000000" d=" M 360.69 277.74 C 361.91 276.44 363.01 274.34 365.17 274.96 C 368.61 275.58 367.05 279.79 367.41 282.19 C 367.71 282.66 368.32 283.61 368.63 284.09 C 367.53 283.61 366.43 283.13 365.33 282.68 C 365.62 281.75 366.21 279.91 366.50 278.98 C 364.71 279.77 362.17 279.80 361.74 282.16 C 363.11 282.68 364.58 283.15 365.78 284.06 C 362.19 285.71 359.72 281.82 361.90 279.17 C 363.85 279.19 365.48 278.32 366.84 276.99 C 365.72 276.52 364.56 276.14 363.39 275.87 C 362.85 277.08 361.95 277.70 360.69 277.74 Z" />
<path fill="#000000" d=" M 376.12 274.81 C 379.38 274.26 381.37 276.88 381.79 279.79 C 379.51 279.94 377.24 280.01 374.97 280.11 C 375.42 284.07 379.31 282.81 381.90 282.05 C 380.39 283.79 378.27 284.25 376.03 284.11 C 375.08 282.49 373.55 280.92 373.89 278.89 C 374.18 277.32 375.31 276.12 376.12 274.81 Z" />
<path fill="#000000" d=" M 395.68 277.73 C 396.88 275.98 398.63 274.16 400.97 275.13 C 403.41 276.58 402.03 279.87 402.43 282.16 C 402.72 282.72 403.31 283.84 403.60 284.40 C 401.59 283.48 399.53 281.45 401.31 279.00 C 399.56 279.77 397.17 279.87 396.74 282.16 C 398.11 282.69 399.58 283.15 400.78 284.06 C 398.05 284.88 396.39 283.62 395.64 281.27 C 396.00 280.75 396.73 279.72 397.10 279.21 C 398.63 279.02 400.16 278.70 401.31 277.58 C 401.44 275.80 399.56 276.19 398.38 275.94 C 397.80 277.09 396.90 277.69 395.68 277.73 Z" />
<path fill="#870000" d=" M 409.16 274.46 L 410.02 276.02 C 410.03 276.23 410.04 276.65 410.04 276.86 C 410.06 279.25 410.04 281.64 410.04 284.04 L 409.00 283.99 C 408.96 280.81 408.89 277.63 409.16 274.46 Z" />
<path fill="#000000" d=" M 410.02 276.02 C 411.27 274.36 414.54 274.40 415.19 276.60 L 415.03 277.10 L 414.56 277.08 C 413.85 276.89 412.45 276.51 411.74 276.33 C 411.32 276.46 410.47 276.73 410.04 276.86 C 410.04 276.65 410.03 276.23 410.02 276.02 Z" />
<path fill="#8b0700" d=" M 416.98 274.92 L 418.18 275.29 C 417.89 277.50 417.85 279.73 418.04 281.96 L 418.15 283.39 C 416.07 281.09 417.24 277.71 416.98 274.92 Z" />
<path fill="#80753f" d=" M 418.18 275.29 C 419.89 276.54 419.48 280.32 418.36 282.10 L 418.04 281.96 C 417.85 279.73 417.89 277.50 418.18 275.29 Z" />
<path fill="#800000" d=" M 422.62 281.86 C 421.45 280.20 421.10 276.25 422.85 275.19 C 423.17 277.34 423.03 279.52 422.97 281.69 L 422.62 281.86 Z" />
<path fill="#877840" d=" M 422.85 275.19 L 423.98 275.00 C 424.02 278.14 424.06 281.30 423.71 284.43 L 423.42 283.43 C 423.31 283.00 423.08 282.13 422.97 281.69 C 423.03 279.52 423.17 277.34 422.85 275.19 Z" />
<path fill="#570000" d=" M 425.05 274.60 L 426.19 275.27 C 426.20 278.44 426.02 281.60 425.97 284.78 C 423.96 281.80 425.22 277.95 425.05 274.60 Z" />
<path fill="#786c3a" d=" M 426.19 275.27 L 426.61 275.42 C 426.83 275.50 427.28 275.67 427.51 275.75 C 426.75 278.72 427.34 281.97 425.97 284.78 C 426.02 281.60 426.20 278.44 426.19 275.27 Z" />
<path fill="#000000" d=" M 426.61 275.42 C 428.25 274.92 429.91 275.15 431.50 275.72 C 433.34 274.68 435.94 274.56 436.19 277.26 L 435.81 277.08 C 434.37 275.94 432.49 275.68 431.38 277.39 L 431.12 277.58 L 430.82 277.43 C 429.99 277.01 428.33 276.17 427.51 275.75 C 427.28 275.67 426.83 275.50 426.61 275.42 Z" />
<path fill="#000000" d=" M 449.16 274.79 C 452.36 274.32 454.66 276.89 454.60 279.98 C 452.39 279.99 450.18 280.00 447.99 280.04 C 448.38 284.09 452.27 282.72 454.93 282.18 C 453.28 283.87 449.59 285.33 448.16 282.70 C 447.86 282.28 447.24 281.44 446.93 281.01 C 446.39 278.61 447.80 276.59 449.16 274.79 Z" />
<path fill="#870002" d=" M 456.20 274.45 L 456.84 275.64 C 457.14 278.24 457.11 280.89 456.74 283.48 L 456.21 284.53 C 455.86 281.18 455.88 277.80 456.20 274.45 Z" />
<path fill="#000022" d=" M 456.84 275.64 C 458.07 275.12 459.33 275.04 460.62 275.38 C 456.14 275.73 457.62 280.82 457.44 283.84 L 456.74 283.48 C 457.11 280.89 457.14 278.24 456.84 275.64 Z" />
<path fill="#000000" d=" M 476.12 274.95 C 476.88 274.95 478.41 274.95 479.18 274.95 C 480.59 276.30 481.40 278.02 481.62 279.97 C 479.42 279.99 477.21 279.99 475.02 280.03 C 475.32 284.07 479.29 282.83 481.87 282.05 C 480.32 283.92 476.61 285.35 475.19 282.71 C 474.87 282.29 474.24 281.45 473.93 281.03 C 473.42 278.69 474.69 276.65 476.12 274.95 Z" />
<path fill="#b74b16" d=" M 485.56 275.46 L 486.93 275.18 C 486.74 277.37 487.47 279.50 488.56 281.38 C 488.66 281.06 488.86 280.42 488.96 280.10 C 489.67 278.55 489.68 276.52 490.96 275.30 C 491.11 275.76 491.42 276.68 491.57 277.14 C 492.08 278.35 492.62 279.56 493.10 280.80 L 493.12 282.25 C 492.64 281.28 492.17 280.32 491.72 279.35 C 491.44 279.43 490.89 279.59 490.62 279.67 L 490.20 279.78 C 489.41 281.05 488.59 282.44 488.71 283.99 C 487.40 281.50 487.18 278.62 485.88 276.13 L 485.56 275.46 Z" />
<path fill="#000022" d=" M 486.93 275.18 C 488.82 275.43 488.61 278.60 488.96 280.10 C 488.86 280.42 488.66 281.06 488.56 281.38 C 487.47 279.50 486.74 277.37 486.93 275.18 Z" />
<path fill="#000000" d=" M 490.96 275.30 L 491.86 275.34 C 491.79 275.79 491.64 276.69 491.57 277.14 C 491.42 276.68 491.11 275.76 490.96 275.30 Z" />
<path fill="#757239" d=" M 491.86 275.34 C 493.80 275.52 494.08 279.12 493.46 280.69 L 493.10 280.80 C 492.62 279.56 492.08 278.35 491.57 277.14 C 491.64 276.69 491.79 275.79 491.86 275.34 Z" />
<path fill="#b74300" d=" M 495.01 275.45 L 495.81 275.15 C 495.71 275.65 495.51 276.64 495.42 277.14 C 495.31 276.72 495.11 275.88 495.01 275.45 Z" />
<path fill="#000022" d=" M 495.81 275.15 L 497.09 274.89 C 495.68 277.91 496.29 282.45 493.16 284.31 C 493.15 283.79 493.13 282.77 493.12 282.25 L 493.10 280.80 L 493.46 280.69 L 494.49 280.39 C 494.75 279.29 495.06 278.21 495.42 277.14 C 495.51 276.64 495.71 275.65 495.81 275.15 Z" />
<path fill="#000000" d=" M 500.12 274.81 C 503.35 274.29 505.62 276.88 505.62 279.96 C 503.41 279.99 501.20 280.00 499.00 280.04 C 499.36 284.01 503.25 282.95 505.79 281.94 C 505.08 282.65 504.38 283.36 503.68 284.07 C 502.10 283.86 499.94 284.57 499.19 282.69 C 498.87 282.28 498.23 281.45 497.90 281.04 C 497.44 278.65 498.76 276.62 500.12 274.81 Z" />
<path fill="#000000" d=" M 509.13 274.81 C 512.35 274.30 514.64 276.87 514.61 279.97 C 512.39 279.99 510.18 280.00 507.98 280.05 C 508.38 284.08 512.27 282.72 514.92 282.18 C 513.25 283.88 509.59 285.34 508.16 282.69 C 507.85 282.27 507.23 281.42 506.92 281.00 C 506.41 278.62 507.79 276.60 509.13 274.81 Z" />
<path fill="#870000" d=" M 516.16 274.46 L 517.02 276.00 C 517.03 276.21 517.04 276.63 517.04 276.84 C 517.06 279.22 517.03 281.61 517.03 284.00 L 515.99 284.02 C 515.96 280.83 515.90 277.64 516.16 274.46 Z" />
<path fill="#000000" d=" M 517.02 276.00 C 518.28 274.34 521.56 274.40 522.19 276.62 L 522.01 277.11 L 521.55 277.09 C 520.85 276.89 519.45 276.51 518.75 276.32 C 518.33 276.45 517.47 276.71 517.04 276.84 C 517.04 276.63 517.03 276.21 517.02 276.00 Z" />
<path fill="#ff7822" d=" M 530.89 275.38 C 531.16 275.25 531.72 274.99 532.00 274.86 C 532.00 278.04 532.02 281.22 531.80 284.39 C 530.57 281.56 530.90 278.38 530.89 275.38 Z" />
<path fill="#000000" d=" M 540.89 277.71 C 541.91 275.04 544.95 274.20 547.25 275.90 C 547.25 278.68 547.41 281.45 547.98 284.18 L 545.59 282.92 C 545.78 281.97 546.14 280.06 546.32 279.11 C 545.40 279.41 543.56 280.00 542.64 280.30 C 540.70 282.36 543.94 283.62 545.75 283.33 C 544.48 283.77 543.19 284.05 541.86 284.19 C 541.25 282.54 540.86 280.76 541.85 279.18 C 543.78 279.18 545.44 278.36 546.82 277.04 C 545.64 276.13 544.34 275.86 542.92 276.25 C 542.79 276.38 542.54 276.62 542.41 276.74 L 542.11 277.86 L 540.89 277.71 Z" />
<path fill="#870000" d=" M 550.16 274.47 L 551.04 276.01 C 551.04 276.22 551.05 276.65 551.06 276.87 C 551.06 279.25 551.03 281.64 551.03 284.02 L 549.99 283.99 C 549.96 280.81 549.90 277.63 550.16 274.47 Z" />
<path fill="#000000" d=" M 551.04 276.01 C 552.17 274.51 555.31 274.21 555.98 276.31 L 556.00 276.93 L 555.57 277.01 C 554.87 276.84 553.46 276.52 552.76 276.35 C 552.33 276.48 551.48 276.74 551.06 276.87 C 551.05 276.65 551.04 276.22 551.04 276.01 Z" />
<path fill="#ff7822" d=" M 573.88 275.38 C 574.16 275.25 574.72 274.98 575.00 274.85 C 575.00 278.02 575.02 281.20 574.80 284.37 C 573.59 281.53 573.82 278.38 573.88 275.38 Z" />
<path fill="#a72904" d=" M 220.10 280.59 C 218.19 280.71 217.97 276.31 219.82 276.22 C 220.03 277.66 220.05 279.13 220.10 280.59 Z" />
<path fill="#ff9a40" d=" M 232.70 277.07 C 233.99 276.00 235.69 276.21 237.00 277.12 L 237.18 277.90 C 237.20 278.75 237.24 280.44 237.26 281.29 L 237.17 282.03 C 235.96 282.70 234.49 282.92 233.22 282.31 C 233.56 280.55 233.44 278.72 232.70 277.07 Z" />
<path fill="#35c0cd" d=" M 237.17 276.54 L 237.41 275.81 C 238.60 277.91 238.96 280.68 237.61 282.80 L 237.27 282.58 L 237.17 282.03 L 237.26 281.29 C 238.61 280.56 238.56 278.56 237.18 277.90 L 237.00 277.12 L 237.17 276.54 Z" />
<path fill="#ff9a40" d=" M 257.95 283.20 C 253.45 284.10 252.73 276.13 257.00 275.92 C 260.15 276.96 258.86 280.98 257.95 283.20 Z" />
<path fill="#8f0a00" d=" M 269.94 276.01 L 270.84 276.44 C 271.03 279.01 270.95 281.60 270.80 284.17 C 269.55 281.63 270.03 278.74 269.94 276.01 Z" />
<path fill="#ff9a40" d=" M 274.99 278.99 C 275.52 276.99 276.74 275.70 278.90 275.78 C 279.44 276.83 279.98 277.88 280.51 278.93 C 278.67 278.97 276.83 278.99 274.99 278.99 Z" />
<path fill="#ff9a40" d=" M 326.15 283.10 C 320.72 284.49 320.70 274.56 326.12 275.87 L 326.00 277.24 C 325.83 278.76 325.84 280.30 326.03 281.83 L 326.15 283.10 Z" />
<path fill="#ff9a40" d=" M 330.65 278.49 C 331.77 277.22 332.80 275.26 334.83 276.04 C 335.50 276.96 336.10 277.94 336.61 278.98 C 334.61 279.03 332.60 278.97 330.65 278.49 Z" />
<path fill="#937c3f" d=" M 340.05 276.88 C 340.47 276.74 341.33 276.46 341.76 276.33 C 340.85 278.78 340.99 281.42 340.96 283.99 L 340.03 284.04 C 340.03 281.65 340.06 279.26 340.05 276.88 Z" />
<path fill="#8b7a40" d=" M 345.20 276.60 L 345.56 275.71 C 346.04 278.45 346.03 281.25 346.01 284.03 L 344.84 283.79 C 345.12 281.56 345.05 279.32 345.03 277.08 L 345.20 276.60 Z" />
<path fill="#ff9a40" d=" M 347.96 278.98 C 348.53 277.00 349.75 275.69 351.90 275.80 C 352.45 276.84 352.99 277.88 353.53 278.93 C 351.67 278.96 349.82 278.98 347.96 278.98 Z" />
<path fill="#8f0a00" d=" M 370.01 275.94 C 371.93 278.12 370.62 281.53 370.80 284.19 C 369.55 281.61 369.99 278.70 370.01 275.94 Z" />
<path fill="#ff9a40" d=" M 374.97 278.98 C 375.53 276.98 376.76 275.69 378.93 275.79 C 379.45 276.84 379.98 277.89 380.50 278.94 C 378.66 278.97 376.81 278.98 374.97 278.98 Z" />
<path fill="#ff9a40" d=" M 387.66 282.93 C 382.67 284.20 382.89 274.56 387.92 275.86 C 388.88 278.03 389.90 281.18 387.66 282.93 Z" />
<path fill="#937c3f" d=" M 410.04 276.86 C 410.47 276.73 411.32 276.46 411.74 276.33 C 410.89 278.78 410.97 281.41 410.96 283.97 L 410.04 284.04 C 410.04 281.64 410.06 279.25 410.04 276.86 Z" />
<path fill="#8b7a40" d=" M 415.19 276.60 L 415.52 275.73 C 416.05 278.46 416.04 281.26 416.03 284.03 L 414.84 283.78 C 415.13 281.56 415.05 279.32 415.03 277.10 L 415.19 276.60 Z" />
<path fill="#ff9a40" d=" M 442.67 282.96 C 437.80 284.08 438.19 274.71 443.06 275.73 C 444.07 278.02 444.97 281.09 442.67 282.96 Z" />
<path fill="#ff9a40" d=" M 447.96 278.97 C 448.52 277.02 449.74 275.74 451.86 275.75 C 452.41 276.81 452.97 277.87 453.52 278.94 C 451.66 278.97 449.81 278.98 447.96 278.97 Z" />
<path fill="#ff9a40" d=" M 469.67 282.96 C 464.79 284.06 465.19 274.70 470.07 275.72 C 471.06 278.03 471.97 281.08 469.67 282.96 Z" />
<path fill="#ff9a40" d=" M 474.97 278.98 C 475.51 276.97 476.77 275.70 478.93 275.77 C 479.45 276.82 479.98 277.88 480.51 278.94 C 478.66 278.97 476.81 278.98 474.97 278.98 Z" />
<path fill="#8f0a00" d=" M 483.00 276.02 C 484.96 278.12 483.61 281.56 483.81 284.18 C 482.56 281.64 482.99 278.75 483.00 276.02 Z" />
<path fill="#ff9a40" d=" M 499.00 278.99 C 499.51 276.98 500.74 275.71 502.90 275.78 C 503.44 276.82 503.98 277.88 504.51 278.93 C 502.67 278.97 500.83 278.99 499.00 278.99 Z" />
<path fill="#ff9a40" d=" M 507.96 278.97 C 508.52 277.01 509.74 275.72 511.87 275.77 C 512.42 276.82 512.98 277.87 513.53 278.93 C 511.67 278.96 509.81 278.98 507.96 278.97 Z" />
<path fill="#937c3f" d=" M 517.04 276.84 C 517.47 276.71 518.33 276.45 518.75 276.32 C 517.83 278.78 517.98 281.43 517.96 284.01 L 517.03 284.00 C 517.03 281.61 517.06 279.22 517.04 276.84 Z" />
<path fill="#8b7a40" d=" M 522.19 276.62 L 522.64 275.75 C 523.06 278.51 523.03 281.31 523.01 284.10 L 521.84 283.77 C 522.13 281.56 522.05 279.33 522.01 277.11 L 522.19 276.62 Z" />
<path fill="#005132" d=" M 542.41 276.74 C 542.54 276.62 542.79 276.38 542.92 276.25 C 542.79 276.38 542.54 276.62 542.41 276.74 Z" />
<path fill="#35c0cd" d=" M 547.25 275.90 C 547.42 278.80 547.85 281.69 548.05 284.59 L 547.98 284.18 C 547.41 281.45 547.25 278.68 547.25 275.90 Z" />
<path fill="#937c3f" d=" M 551.06 276.87 C 551.48 276.74 552.33 276.48 552.76 276.35 C 551.87 278.80 551.98 281.43 551.96 283.99 L 551.03 284.02 C 551.03 281.64 551.06 279.25 551.06 276.87 Z" />
<path fill="#8b7a40" d=" M 555.98 276.31 C 556.34 276.53 557.04 276.98 557.40 277.21 C 556.74 278.67 556.77 280.28 557.23 281.80 C 557.14 282.24 556.95 283.11 556.86 283.54 L 555.86 283.97 C 556.09 281.63 556.09 279.27 556.00 276.93 L 555.98 276.31 Z" />
<path fill="#ff9a40" d=" M 562.66 282.94 C 557.69 284.16 557.90 274.63 562.91 275.85 C 563.91 278.03 564.89 281.18 562.66 282.94 Z" />
<path fill="#771500" d=" M 232.09 281.92 C 230.11 281.60 230.16 277.32 232.21 277.11 C 231.94 278.69 231.91 280.31 232.09 281.92 Z" />
<path fill="#8b773e" d=" M 232.21 277.11 L 232.70 277.07 C 233.44 278.72 233.56 280.55 233.22 282.31 C 232.93 282.21 232.37 282.02 232.09 281.92 C 231.91 280.31 231.94 278.69 232.21 277.11 Z" />
<path fill="#570000" d=" M 245.83 277.47 L 246.12 277.61 C 246.35 279.62 246.35 281.65 246.20 283.67 C 244.16 283.09 244.62 278.92 245.83 277.47 Z" />
<path fill="#b8e86a" d=" M 246.12 277.61 L 246.40 277.40 C 248.18 278.65 248.32 282.96 246.20 283.67 C 246.35 281.65 246.35 279.62 246.12 277.61 Z" />
<path fill="#570000" d=" M 250.81 277.05 L 251.19 277.22 C 250.88 279.39 250.92 281.58 250.97 283.76 C 248.99 282.87 249.34 278.54 250.81 277.05 Z" />
<path fill="#877840" d=" M 251.19 277.22 C 252.77 278.39 252.94 282.92 250.97 283.76 C 250.92 281.58 250.88 279.39 251.19 277.22 Z" />
<path fill="#800000" d=" M 297.37 277.22 C 298.53 279.23 298.04 281.69 298.03 283.90 C 295.94 283.00 296.73 279.09 297.37 277.22 Z" />
<path fill="#ef6c19" d=" M 326.00 277.24 C 327.74 277.31 327.76 281.69 326.03 281.83 C 325.84 280.30 325.83 278.76 326.00 277.24 Z" />
<path fill="#800000" d=" M 344.56 277.06 L 345.03 277.08 C 345.05 279.32 345.12 281.56 344.84 283.79 C 343.17 282.62 343.51 278.81 344.56 277.06 Z" />
<path fill="#800000" d=" M 414.56 277.08 L 415.03 277.10 C 415.05 279.32 415.13 281.56 414.84 283.78 C 413.15 282.64 413.53 278.82 414.56 277.08 Z" />
<path fill="#570000" d=" M 430.82 277.43 L 431.12 277.58 C 431.33 279.61 431.34 281.65 431.21 283.69 C 429.18 283.08 429.61 278.90 430.82 277.43 Z" />
<path fill="#b8e86a" d=" M 431.12 277.58 L 431.38 277.39 C 433.15 278.68 433.34 282.92 431.21 283.69 C 431.34 281.65 431.33 279.61 431.12 277.58 Z" />
<path fill="#570000" d=" M 435.81 277.08 L 436.19 277.26 C 435.89 279.41 435.93 281.59 435.97 283.77 C 433.99 282.85 434.34 278.57 435.81 277.08 Z" />
<path fill="#877840" d=" M 436.19 277.26 C 437.79 278.35 437.94 282.95 435.97 283.77 C 435.93 281.59 435.89 279.41 436.19 277.26 Z" />
<path fill="#800000" d=" M 521.55 277.09 L 522.01 277.11 C 522.05 279.33 522.13 281.56 521.84 283.77 C 520.12 282.69 520.55 278.82 521.55 277.09 Z" />
<path fill="#800000" d=" M 555.57 277.01 L 556.00 276.93 C 556.09 279.27 556.09 281.63 555.86 283.97 C 554.19 282.51 554.57 278.93 555.57 277.01 Z" />
<path fill="#fa7c23" d=" M 557.40 277.21 L 557.99 277.21 C 558.23 278.72 558.52 280.39 557.79 281.82 L 557.23 281.80 C 556.77 280.28 556.74 278.67 557.40 277.21 Z" />
<path fill="#670000" d=" M 237.18 277.90 C 238.56 278.56 238.61 280.56 237.26 281.29 C 237.24 280.44 237.20 278.75 237.18 277.90 Z" />
<path fill="#000022" d=" M 490.20 279.78 L 490.62 279.67 C 491.29 281.02 490.73 284.60 488.71 283.99 C 488.59 282.44 489.41 281.05 490.20 279.78 Z" />
<path fill="#b7330b" d=" M 446.93 281.01 C 447.24 281.44 447.86 282.28 448.16 282.70 L 447.26 282.74 L 446.63 281.87 L 446.93 281.01 Z" />
<path fill="#b7330b" d=" M 473.93 281.03 C 474.24 281.45 474.87 282.29 475.19 282.71 L 474.28 282.75 L 473.64 281.90 L 473.93 281.03 Z" />
<path fill="#b7330b" d=" M 497.90 281.04 C 498.23 281.45 498.87 282.28 499.19 282.69 L 498.30 282.76 L 497.64 281.92 L 497.90 281.04 Z" />
<path fill="#b7330b" d=" M 506.92 281.00 C 507.23 281.42 507.85 282.27 508.16 282.69 L 507.25 282.73 L 506.62 281.87 L 506.92 281.00 Z" />
<path fill="#000000" d=" M 232.09 281.92 C 232.37 282.02 232.93 282.21 233.22 282.31 C 234.49 282.92 235.96 282.70 237.17 282.03 L 237.27 282.58 C 236.78 285.22 231.90 284.39 232.09 281.92 Z" />
<path fill="#000000" d=" M 263.01 281.86 L 263.33 282.02 C 264.71 283.45 266.23 282.73 267.61 281.80 L 267.94 281.62 C 268.06 282.08 268.29 282.99 268.41 283.45 C 266.84 283.28 263.95 284.75 263.11 283.31 L 263.01 281.86 Z" />
<path fill="#000000" d=" M 418.04 281.96 L 418.36 282.10 C 419.73 283.38 421.24 282.67 422.62 281.86 L 422.97 281.69 C 423.08 282.13 423.31 283.00 423.42 283.43 C 421.83 283.19 419.15 284.84 418.15 283.39 L 418.04 281.96 Z" />
<path fill="#a73400" d=" M 599.04 283.79 C 599.04 283.66 599.04 283.40 599.04 283.27 L 599.04 283.79 Z" />
<path fill="#005132" d=" M 599.04 283.27 C 599.04 283.40 599.04 283.66 599.04 283.79 L 599.04 283.27 Z" />
<path fill="#a73400" d=" M 603.04 283.75 C 603.04 283.62 603.04 283.36 603.04 283.23 L 603.04 283.75 Z" />
<path fill="#005132" d=" M 603.04 283.23 C 603.04 283.36 603.04 283.62 603.04 283.75 L 603.04 283.23 Z" />
<path fill="#a73400" d=" M 607.04 283.76 C 607.04 283.63 607.04 283.37 607.04 283.24 L 607.04 283.76 Z" />
<path fill="#005132" d=" M 607.04 283.24 C 607.04 283.37 607.04 283.63 607.04 283.76 L 607.04 283.24 Z" />
<path fill="#ff0100" d=" M 304.14 304.23 C 319.75 303.68 335.40 304.16 351.02 304.00 C 394.04 304.03 437.07 303.93 480.09 304.05 C 485.84 303.91 490.49 309.32 490.00 314.96 C 490.02 357.31 489.98 399.67 490.02 442.02 C 489.91 445.86 490.58 450.10 488.34 453.49 C 486.41 456.65 482.59 458.13 479.00 458.00 C 423.31 458.01 367.62 457.98 311.94 458.02 C 307.51 458.00 302.31 458.61 298.94 455.09 C 296.17 452.51 295.85 448.54 295.97 445.00 C 296.04 401.66 295.98 358.33 296.00 314.99 C 295.60 310.03 299.09 304.96 304.14 304.23 Z" />
<path fill="#ff9a40" d=" M 303.36 306.50 C 306.16 305.70 309.12 306.05 312.00 305.99 C 368.00 306.05 424.01 305.92 480.02 306.05 C 484.74 305.90 488.46 310.40 488.00 314.99 C 487.97 359.35 488.07 403.70 487.95 448.05 C 488.07 452.73 483.62 456.44 479.07 456.00 C 421.70 456.00 364.33 456.00 306.96 456.00 C 302.39 456.45 297.92 452.74 298.05 448.05 C 297.93 403.68 298.03 359.30 298.00 314.94 C 297.77 311.35 299.81 307.58 303.36 306.50 Z" />
<path fill="#9c9c9b" d=" M 319.06 315.92 C 318.89 312.71 322.06 310.59 325.03 311.00 C 355.72 311.00 386.40 311.00 417.08 310.99 C 419.03 310.79 420.77 311.63 421.89 313.24 C 390.28 312.69 358.66 313.17 327.04 312.97 C 325.16 313.26 321.75 312.47 321.29 315.03 C 320.67 319.00 321.07 323.05 321.03 327.06 C 324.28 327.09 327.52 327.11 330.77 327.26 C 329.28 327.65 327.79 328.01 326.30 328.38 C 325.98 332.09 327.62 336.58 324.90 339.64 C 324.53 335.81 324.61 331.96 324.68 328.13 C 323.45 328.04 322.24 327.95 321.02 327.87 C 320.96 337.24 320.94 346.62 321.27 355.99 C 319.54 354.85 318.82 352.95 319.00 350.95 C 319.04 339.28 318.90 327.59 319.06 315.92 Z" />
<path fill="#fefefe" d=" M 427.00 312.00 C 432.89 311.94 438.77 312.11 444.66 311.92 L 444.44 312.67 C 443.25 315.44 443.43 318.48 443.54 321.43 C 438.59 321.74 433.51 320.69 428.66 322.03 C 428.53 322.17 428.26 322.45 428.13 322.59 L 427.23 323.69 C 426.91 319.80 426.98 315.90 427.00 312.00 Z" />
<path fill="#b7f324" d=" M 444.66 311.92 C 446.05 312.16 447.56 312.14 448.90 312.71 C 454.88 318.66 461.21 324.28 466.83 330.58 L 467.07 330.86 C 466.60 331.08 465.64 331.53 465.16 331.75 C 463.34 329.94 461.55 328.08 459.77 326.23 C 458.01 324.42 456.05 322.84 454.16 321.19 C 451.92 318.97 449.76 316.43 446.47 315.90 C 446.44 316.53 446.38 317.78 446.35 318.40 C 446.23 320.25 446.11 322.11 446.00 323.97 C 440.73 323.89 435.40 323.60 430.20 324.68 C 429.49 327.75 429.63 330.92 429.74 334.06 C 429.50 335.88 429.05 337.68 428.53 339.45 C 428.18 333.84 428.29 328.21 428.13 322.59 C 428.26 322.45 428.53 322.17 428.66 322.03 C 433.76 322.04 438.88 322.65 443.96 322.06 C 445.23 319.27 444.19 315.73 444.44 312.67 L 444.66 311.92 Z" />
<path fill="#fefefe" d=" M 448.24 312.09 C 454.49 311.92 460.74 312.03 467.00 312.00 C 466.94 318.19 467.16 324.39 466.83 330.58 C 461.21 324.28 454.88 318.66 448.90 312.71 L 448.24 312.09 Z" />
<path fill="#ffffff" d=" M 321.29 315.03 C 321.75 312.47 325.16 313.26 327.04 312.97 C 358.66 313.17 390.28 312.69 421.89 313.24 L 422.35 313.24 C 422.80 315.45 422.98 317.70 422.93 319.96 C 422.80 330.68 423.01 341.42 422.84 352.14 C 422.92 355.16 419.90 357.31 417.05 356.90 C 390.72 356.89 364.39 356.90 338.06 356.89 C 332.46 356.69 326.80 357.40 321.27 356.37 L 321.27 355.99 C 320.94 346.62 320.96 337.24 321.02 327.87 C 322.24 327.95 323.45 328.04 324.68 328.13 C 324.61 331.96 324.53 335.81 324.90 339.64 C 327.62 336.58 325.98 332.09 326.30 328.38 C 327.79 328.01 329.28 327.65 330.77 327.26 C 327.52 327.11 324.28 327.09 321.03 327.06 C 321.07 323.05 320.67 319.00 321.29 315.03 Z" />
<path fill="#62b800" d=" M 443.54 321.43 C 443.43 318.48 443.25 315.44 444.44 312.67 C 444.19 315.73 445.23 319.27 443.96 322.06 C 438.88 322.65 433.76 322.04 428.66 322.03 C 433.51 320.69 438.59 321.74 443.54 321.43 Z" />
<path fill="#a2dd43" d=" M 446.47 315.90 C 449.76 316.43 451.92 318.97 454.16 321.19 C 453.44 324.45 453.35 327.90 452.03 331.00 C 449.05 335.91 442.95 339.31 437.16 337.97 C 434.38 337.35 432.07 335.59 429.74 334.06 C 429.63 330.92 429.49 327.75 430.20 324.68 C 431.17 327.43 432.03 330.62 434.84 332.11 C 439.09 335.12 445.22 333.02 448.15 329.15 C 449.45 325.64 449.42 321.03 446.35 318.40 C 446.38 317.78 446.44 316.53 446.47 315.90 Z" />
<path fill="#b8e86a" d=" M 446.35 318.40 C 449.42 321.03 449.45 325.64 448.15 329.15 C 445.22 333.02 439.09 335.12 434.84 332.11 C 432.03 330.62 431.17 327.43 430.20 324.68 C 435.40 323.60 440.73 323.89 446.00 323.97 C 446.11 322.11 446.23 320.25 446.35 318.40 Z" />
<path fill="#90d423" d=" M 454.16 321.19 C 456.05 322.84 458.01 324.42 459.77 326.23 C 458.00 329.59 457.03 333.49 454.31 336.28 C 452.28 338.47 449.93 340.35 447.35 341.85 C 446.99 341.60 446.26 341.10 445.89 340.84 C 445.83 340.45 445.71 339.68 445.65 339.29 C 440.38 339.41 435.07 339.60 429.89 338.50 C 429.83 339.60 429.78 340.70 429.74 341.80 C 428.81 341.24 427.91 340.62 427.02 340.03 C 427.36 334.59 426.86 329.13 427.23 323.69 L 428.13 322.59 C 428.29 328.21 428.18 333.84 428.53 339.45 C 429.05 337.68 429.50 335.88 429.74 334.06 C 432.07 335.59 434.38 337.35 437.16 337.97 C 442.95 339.31 449.05 335.91 452.03 331.00 C 453.35 327.90 453.44 324.45 454.16 321.19 Z" />
<path fill="#000000" d=" M 340.84 326.83 C 341.14 328.85 341.13 330.97 342.07 332.84 C 343.77 332.03 344.98 330.30 347.00 330.00 C 344.94 331.08 342.50 332.29 343.23 335.12 C 344.49 336.38 345.71 337.70 346.76 339.15 C 345.02 338.05 344.17 335.69 342.14 335.14 C 341.51 336.41 341.12 337.78 340.62 339.10 C 340.14 335.02 340.33 330.90 340.84 326.83 Z" />
<path fill="#81cd09" d=" M 454.31 336.28 C 457.03 333.49 458.00 329.59 459.77 326.23 C 461.55 328.08 463.34 329.94 465.16 331.75 C 465.64 331.53 466.60 331.08 467.07 330.86 C 467.01 331.63 466.88 333.16 466.82 333.92 L 466.64 333.67 C 466.24 333.42 465.44 332.93 465.04 332.68 C 460.13 336.88 455.94 341.83 451.17 346.18 C 449.94 347.21 448.06 348.65 446.51 347.42 C 445.81 345.30 446.08 343.03 445.89 340.84 C 446.26 341.10 446.99 341.60 447.35 341.85 C 449.93 340.35 452.28 338.47 454.31 336.28 Z" />
<path fill="#b7b1b2" d=" M 330.45 333.26 C 330.63 329.34 337.61 328.30 337.98 332.39 C 337.92 334.49 337.83 336.62 338.17 338.71 C 336.14 338.89 334.09 339.14 332.06 338.93 C 330.15 338.19 330.63 335.98 330.77 334.41 C 332.46 333.41 336.88 333.94 336.00 331.03 C 333.84 330.74 332.23 332.36 330.45 333.26 Z" />
<path fill="#b3b2b6" d=" M 351.96 339.06 C 346.44 340.20 345.66 330.20 350.91 329.94 C 354.08 329.14 355.59 332.37 355.59 334.99 C 353.46 335.00 351.34 335.01 349.22 335.04 C 349.83 336.21 349.92 338.40 351.81 337.85 C 353.11 337.21 354.32 336.42 355.59 335.73 C 354.78 337.19 354.15 339.54 351.96 339.06 Z" />
<path fill="#b7b1b2" d=" M 361.50 333.28 C 361.90 329.81 365.31 329.78 368.04 329.86 C 369.52 332.66 369.23 335.88 369.23 338.94 C 367.16 338.95 365.09 339.11 363.04 338.87 C 361.10 338.26 361.64 335.91 361.79 334.40 C 363.75 333.51 367.40 333.81 367.35 330.88 C 365.12 330.89 363.32 332.19 361.50 333.28 Z" />
<path fill="#c6b8b0" d=" M 377.30 330.16 C 378.88 329.93 380.49 330.00 382.09 329.98 C 382.14 333.73 382.13 337.48 382.02 341.23 C 379.76 342.76 376.44 342.39 374.82 340.11 C 377.08 340.24 379.97 341.89 381.41 339.31 C 379.68 338.86 377.31 339.51 376.20 337.73 C 374.45 335.46 374.93 331.82 377.30 330.16 Z" />
<path fill="#abb5cd" d=" M 382.09 329.98 L 383.09 329.95 C 382.89 333.68 384.00 337.82 382.02 341.23 C 382.13 337.48 382.14 333.73 382.09 329.98 Z" />
<path fill="#c8b2a9" d=" M 384.88 329.95 L 385.75 330.03 C 385.80 332.85 385.84 335.69 385.85 338.52 C 384.25 335.95 385.01 332.80 384.88 329.95 Z" />
<path fill="#adb4c5" d=" M 385.75 330.03 L 386.89 330.05 C 386.91 332.73 386.95 335.41 387.05 338.10 C 388.36 338.07 389.44 337.63 390.31 336.77 C 391.64 334.91 391.18 332.41 390.83 330.31 L 392.07 329.94 C 392.13 332.92 392.13 335.90 392.08 338.88 C 390.00 338.93 387.93 338.99 385.86 339.05 L 385.85 338.52 C 385.84 335.69 385.80 332.85 385.75 330.03 Z" />
<path fill="#d4baa9" d=" M 390.31 336.77 C 389.69 334.95 389.03 331.32 390.83 330.31 C 391.18 332.41 391.64 334.91 390.31 336.77 Z" />
<path fill="#b3b2b6" d=" M 396.91 339.05 C 391.56 338.80 392.54 328.64 398.09 329.94 C 400.85 329.78 401.31 332.94 401.59 334.99 C 399.46 335.00 397.34 335.01 395.22 335.04 C 395.82 336.18 395.94 338.38 397.80 337.85 C 399.09 337.22 400.30 336.43 401.57 335.73 C 400.94 337.85 399.36 339.73 396.91 339.05 Z" />
<path fill="#b7b3b4" d=" M 402.51 331.97 C 403.01 329.39 406.02 330.12 407.92 329.86 C 408.24 330.42 408.88 331.53 409.19 332.09 C 407.58 332.14 404.54 329.67 404.10 332.26 C 405.39 334.16 408.73 333.65 409.54 335.91 C 409.95 339.86 403.47 340.27 402.21 337.06 C 404.10 337.01 407.99 339.65 407.56 336.10 C 405.96 334.68 402.10 334.87 402.51 331.97 Z" />
<path fill="#b7b3b4" d=" M 410.49 331.93 C 411.46 328.88 416.24 329.31 417.39 332.02 C 415.61 332.06 411.80 329.45 412.39 332.87 C 414.05 333.92 416.71 333.90 417.58 335.89 C 417.96 339.84 411.36 340.35 410.29 337.02 C 411.99 337.37 413.68 337.77 415.39 338.17 C 415.33 337.48 415.21 336.11 415.15 335.43 C 413.33 334.94 409.99 334.62 410.49 331.93 Z" />
<path fill="#efefef" d=" M 350.16 330.94 C 352.30 330.71 353.53 332.03 354.20 333.93 C 352.45 333.94 350.71 333.94 348.98 333.93 C 349.37 332.93 349.76 331.93 350.16 330.94 Z" />
<path fill="#ffffff" d=" M 378.28 331.36 C 382.08 329.56 382.41 339.23 378.22 337.82 C 376.92 336.04 376.65 332.97 378.28 331.36 Z" />
<path fill="#efefef" d=" M 394.82 333.88 C 395.59 332.71 396.02 330.47 397.93 331.00 C 399.30 331.24 399.43 332.97 400.20 333.89 C 398.40 333.91 396.61 333.91 394.82 333.88 Z" />
<path fill="#d4fcff" d=" M 337.98 332.39 C 339.88 333.21 339.91 337.71 338.17 338.71 C 337.83 336.62 337.92 334.49 337.98 332.39 Z" />
<path fill="#62b800" d=" M 451.17 346.18 C 455.94 341.83 460.13 336.88 465.04 332.68 C 465.44 332.93 466.24 333.42 466.64 333.67 C 460.54 339.88 454.22 345.88 447.95 351.93 C 447.29 351.91 445.98 351.88 445.32 351.86 C 444.91 351.45 444.09 350.63 443.68 350.22 C 443.65 347.43 443.64 344.65 443.61 341.87 C 438.98 341.83 434.36 342.01 429.74 341.80 C 429.78 340.70 429.83 339.60 429.89 338.50 C 435.07 339.60 440.38 339.41 445.65 339.29 C 445.71 339.68 445.83 340.45 445.89 340.84 C 446.08 343.03 445.81 345.30 446.51 347.42 C 448.06 348.65 449.94 347.21 451.17 346.18 Z" />
<path fill="#eff8fb" d=" M 332.06 335.58 C 333.54 335.04 335.03 334.51 336.53 333.99 C 336.00 335.39 336.19 338.27 333.98 338.02 C 332.47 338.49 332.68 336.38 332.06 335.58 Z" />
<path fill="#eff8fb" d=" M 363.06 335.55 C 364.53 335.03 365.99 334.51 367.47 334.02 C 367.02 335.41 367.17 338.29 365.00 338.02 C 363.45 338.50 363.68 336.36 363.06 335.55 Z" />
<path fill="#fefefe" d=" M 466.64 333.67 L 466.82 333.92 C 467.26 339.93 466.88 345.98 467.00 352.00 C 460.65 351.98 454.30 352.06 447.95 351.93 C 454.22 345.88 460.54 339.88 466.64 333.67 Z" />
<path fill="#fefefe" d=" M 427.02 340.03 C 427.91 340.62 428.81 341.24 429.74 341.80 C 434.36 342.01 438.98 341.83 443.61 341.87 C 443.64 344.65 443.65 347.43 443.68 350.22 C 444.09 350.63 444.91 351.45 445.32 351.86 C 439.21 352.12 433.11 351.96 427.00 352.00 C 426.99 348.01 426.99 344.02 427.02 340.03 Z" />
<path fill="#acacac" d=" M 317.02 390.00 C 343.01 390.00 369.00 390.00 394.99 390.01 C 395.01 396.67 395.00 403.33 395.00 409.99 C 369.00 410.01 343.01 410.00 317.01 409.99 C 317.00 403.33 316.98 396.66 317.02 390.00 Z" />
<path fill="#acacac" d=" M 405.00 390.01 C 426.34 390.02 447.67 389.96 469.00 390.03 C 468.99 396.68 468.99 403.33 469.00 409.98 C 447.67 410.01 426.33 410.01 405.00 409.99 C 405.00 403.33 405.00 396.67 405.00 390.01 Z" />
<path fill="#eeeeee" d=" M 317.99 391.00 C 343.33 390.98 368.67 390.98 394.01 391.01 C 394.01 394.65 393.97 398.30 393.95 401.94 C 391.77 401.90 389.60 401.84 387.43 401.85 C 387.06 400.93 386.67 400.02 386.28 399.13 C 384.87 396.82 382.79 398.50 381.63 400.00 C 381.03 401.60 380.52 403.23 379.91 404.84 C 380.27 403.18 380.41 401.44 380.01 399.79 C 379.97 397.56 377.32 397.86 375.95 398.65 C 374.81 397.60 373.84 397.73 373.06 399.01 C 372.92 399.20 372.64 399.57 372.50 399.76 C 372.15 399.36 371.45 398.56 371.10 398.16 C 370.12 400.22 370.37 402.78 368.93 404.61 L 368.99 403.81 C 369.05 402.57 369.13 401.33 369.22 400.10 C 369.17 399.64 369.06 398.72 369.00 398.26 L 368.16 398.22 C 367.38 398.21 365.83 398.21 365.06 398.20 C 364.70 398.42 363.99 398.86 363.63 399.08 L 363.95 399.80 L 364.85 399.65 C 366.10 399.34 367.36 399.60 368.57 399.93 C 367.50 400.57 366.36 401.05 365.16 401.37 C 364.68 401.33 363.71 401.26 363.23 401.23 C 362.92 401.04 362.28 400.67 361.96 400.49 C 361.21 400.40 359.70 400.22 358.94 400.13 L 358.41 400.19 L 358.39 400.63 L 358.90 400.76 C 359.41 400.90 360.41 401.17 360.92 401.31 C 360.91 401.79 360.90 402.75 360.89 403.23 L 360.40 403.55 L 360.56 404.04 C 359.59 404.02 357.64 403.98 356.67 403.96 C 355.97 403.03 355.27 402.10 354.63 401.14 C 355.77 399.61 357.00 397.74 356.39 395.75 C 357.18 395.88 358.76 396.16 359.55 396.29 C 360.30 396.66 361.07 397.01 361.85 397.34 L 361.55 396.85 C 361.48 396.75 361.34 396.56 361.28 396.47 C 360.92 396.06 360.21 395.25 359.86 394.85 C 358.50 394.97 357.07 394.93 355.85 395.64 C 353.72 396.99 353.65 399.56 353.68 401.81 C 351.86 401.60 350.05 401.41 348.24 401.24 C 348.39 400.48 348.70 398.95 348.85 398.19 L 348.20 398.26 C 346.78 398.66 346.34 399.65 346.86 401.25 L 346.97 401.96 L 345.98 401.51 L 345.91 400.90 C 346.05 399.76 345.75 398.91 345.00 398.36 L 344.15 398.14 C 344.02 398.63 343.77 399.59 343.64 400.07 C 343.74 400.50 343.93 401.36 344.03 401.79 L 343.10 401.46 C 342.57 400.26 342.34 398.42 340.78 398.16 L 339.71 397.87 L 339.95 399.65 C 339.33 399.25 338.10 398.46 337.48 398.06 L 336.80 398.15 L 336.26 398.22 L 335.25 398.38 C 334.78 398.62 333.83 399.09 333.36 399.32 C 333.19 397.97 332.97 396.63 332.72 395.31 L 331.56 395.16 L 331.09 395.11 L 330.79 395.08 C 330.04 396.92 329.52 398.93 329.79 400.94 L 329.30 400.76 C 328.85 400.09 327.94 398.76 327.48 398.10 C 327.66 396.83 327.29 395.78 326.37 394.94 L 325.78 395.04 L 325.03 395.18 C 323.77 397.14 323.79 399.53 323.49 401.77 C 321.67 401.89 319.85 402.01 318.04 402.14 C 318.03 398.42 317.99 394.71 317.99 391.00 Z" />
<path fill="#eeeeee" d=" M 405.99 391.01 C 426.66 390.97 447.34 390.99 468.02 391.00 C 468.01 394.38 467.98 397.76 467.96 401.15 C 466.12 401.02 464.27 400.90 462.44 400.79 C 462.26 398.89 462.10 397.00 461.87 395.12 L 460.84 395.10 L 460.10 395.12 C 459.44 396.18 458.81 397.25 458.22 398.34 C 457.94 398.31 457.38 398.25 457.10 398.22 C 455.85 398.11 454.61 398.14 453.37 398.32 C 452.70 398.27 451.36 398.17 450.69 398.12 L 450.24 398.09 L 449.73 398.05 C 448.64 399.67 449.01 401.72 449.38 403.52 C 448.93 403.68 448.04 404.00 447.59 404.15 C 447.59 402.18 447.61 400.21 447.48 398.24 L 446.90 398.17 L 446.41 398.13 C 444.64 399.77 442.79 401.46 440.32 401.89 C 440.23 401.05 440.04 399.38 439.94 398.55 C 439.30 400.46 437.93 401.34 435.81 401.19 L 436.13 398.90 L 436.18 398.85 L 436.95 398.99 C 437.41 398.99 438.33 398.99 438.79 398.98 L 438.58 398.29 C 438.16 398.26 437.30 398.19 436.88 398.15 C 436.27 398.26 435.06 398.46 434.45 398.56 C 434.32 398.52 434.07 398.44 433.94 398.40 L 433.24 398.10 C 433.02 398.93 432.60 400.57 432.38 401.39 C 432.05 401.44 431.39 401.54 431.06 401.59 C 431.28 400.16 430.79 399.36 429.60 399.19 L 429.49 399.19 L 429.08 398.96 L 427.73 398.23 L 427.23 398.13 L 425.39 398.10 C 425.16 398.11 424.71 398.13 424.48 398.14 C 421.78 397.32 420.13 398.86 419.28 401.14 C 417.97 401.01 416.67 400.90 415.38 400.78 C 415.16 398.98 414.97 397.19 414.69 395.41 L 414.05 395.04 L 412.89 395.04 L 412.03 395.08 C 411.80 396.96 411.65 398.86 411.49 400.75 C 409.67 400.87 407.85 401.00 406.04 401.13 C 406.01 397.75 405.98 394.38 405.99 391.01 Z" />
<path fill="#e6e6e6" d=" M 323.49 401.77 C 323.79 399.53 323.77 397.14 325.03 395.18 C 325.13 395.88 325.34 397.29 325.45 397.99 C 324.66 400.22 324.20 402.89 325.51 405.03 L 325.90 404.82 C 327.73 403.90 327.28 401.47 327.08 399.82 C 327.57 400.20 328.55 400.97 329.04 401.35 L 329.28 402.20 C 329.30 402.39 329.34 402.78 329.35 402.98 C 329.56 403.43 329.97 404.34 330.18 404.80 L 331.03 404.81 L 331.62 404.83 C 331.72 404.15 331.92 402.79 332.02 402.11 C 332.10 399.80 332.50 397.35 331.56 395.16 L 332.72 395.31 C 332.97 396.63 333.19 397.97 333.36 399.32 C 333.67 401.27 333.17 403.82 335.47 404.67 C 336.76 405.83 338.45 404.55 339.18 403.40 C 337.89 403.50 336.61 403.65 335.34 403.87 L 335.23 403.22 L 335.38 402.71 C 336.49 402.37 338.70 401.70 339.81 401.37 L 340.22 401.25 C 340.83 402.47 341.50 403.67 342.27 404.80 L 342.78 404.75 L 343.65 404.64 C 343.77 404.15 344.01 403.16 344.12 402.67 L 344.03 401.79 L 345.11 401.77 C 344.63 403.16 344.93 404.16 346.01 404.76 L 346.97 404.70 C 348.28 404.25 348.53 403.29 347.73 401.83 L 347.54 401.18 L 348.24 401.24 C 350.05 401.41 351.86 401.60 353.68 401.81 C 355.21 404.29 357.86 405.97 360.80 404.54 L 361.28 404.44 L 361.11 403.83 L 361.93 403.79 L 362.91 403.78 L 363.93 403.80 C 364.59 404.98 365.64 405.36 367.09 404.93 C 367.55 404.85 368.47 404.69 368.93 404.61 C 370.37 402.78 370.12 400.22 371.10 398.16 C 370.84 400.42 370.78 402.76 371.44 404.98 C 372.20 403.35 372.29 401.51 372.50 399.76 C 372.64 399.57 372.92 399.20 373.06 399.01 C 373.55 399.11 374.52 399.31 375.01 399.41 C 374.90 401.00 374.87 402.62 375.14 404.21 C 375.89 406.13 376.45 402.70 376.23 402.14 C 376.13 401.41 375.91 399.96 375.80 399.23 C 377.05 399.39 378.30 399.60 379.54 399.86 C 379.23 401.24 378.06 404.36 379.91 404.84 C 380.52 403.23 381.03 401.60 381.63 400.00 C 382.07 401.64 381.98 403.60 383.30 404.88 C 385.01 405.50 386.34 404.17 387.70 403.36 C 386.36 403.19 384.07 404.98 383.58 402.97 C 384.37 401.78 385.66 401.40 387.43 401.85 C 389.60 401.84 391.77 401.90 393.95 401.94 C 393.98 404.27 393.99 406.61 394.00 408.95 C 368.67 409.07 343.35 408.93 318.02 409.00 C 318.01 406.71 318.01 404.42 318.04 402.14 C 319.85 402.01 321.67 401.89 323.49 401.77 Z" />
<path fill="#51002a" d=" M 325.03 395.18 L 325.78 395.04 C 325.86 395.76 326.00 397.21 326.07 397.93 L 325.45 397.99 C 325.34 397.29 325.13 395.88 325.03 395.18 Z" />
<path fill="#4f749f" d=" M 325.78 395.04 L 326.37 394.94 C 327.29 395.78 327.66 396.83 327.48 398.10 L 326.72 398.24 L 326.07 397.93 C 326.00 397.21 325.86 395.76 325.78 395.04 Z" />
<path fill="#ecd59a" d=" M 330.79 395.08 L 331.09 395.11 C 330.82 397.20 331.05 399.32 331.00 401.43 C 330.70 401.31 330.09 401.06 329.79 400.94 C 329.52 398.93 330.04 396.92 330.79 395.08 Z" />
<path fill="#51007d" d=" M 331.09 395.11 L 331.56 395.16 C 332.50 397.35 332.10 399.80 332.02 402.11 C 331.77 401.94 331.26 401.60 331.00 401.43 C 331.05 399.32 330.82 397.20 331.09 395.11 Z" />
<path fill="#000000" d=" M 355.85 395.64 C 357.07 394.93 358.50 394.97 359.86 394.85 C 360.21 395.25 360.92 396.06 361.28 396.47 C 361.34 396.56 361.48 396.75 361.55 396.85 L 361.85 397.34 C 361.07 397.01 360.30 396.66 359.55 396.29 C 358.76 396.16 357.18 395.88 356.39 395.75 L 355.85 395.64 Z" />
<path fill="#e6e6e6" d=" M 412.03 395.08 L 412.89 395.04 C 412.87 398.34 412.86 401.65 412.85 404.96 L 414.08 405.05 C 414.07 401.71 414.06 398.37 414.05 395.04 L 414.69 395.41 C 414.97 397.19 415.16 398.98 415.38 400.78 C 416.67 400.90 417.97 401.01 419.28 401.14 C 419.73 402.25 420.24 403.36 420.96 404.34 C 421.48 404.52 422.51 404.88 423.03 405.06 L 423.63 405.18 L 424.47 405.84 C 423.46 406.17 422.46 406.55 421.40 406.64 C 419.10 404.73 418.86 408.40 421.37 408.02 C 422.94 408.63 425.13 407.73 425.19 405.88 C 425.62 403.30 425.61 400.68 425.39 398.10 L 427.23 398.13 C 426.76 400.12 426.61 402.24 427.01 404.27 C 427.87 406.13 428.31 402.73 428.12 402.16 C 428.07 400.83 427.94 399.52 427.73 398.23 L 429.08 398.96 L 429.31 399.26 C 429.08 401.11 429.12 403.28 430.75 404.53 L 431.17 404.93 L 431.60 404.46 C 431.83 403.97 432.30 403.00 432.54 402.52 C 432.77 402.00 433.22 400.97 433.45 400.45 L 433.85 400.14 C 434.46 401.87 434.77 403.99 436.55 404.97 C 437.99 405.74 439.55 404.58 440.19 403.30 C 438.81 403.41 437.50 403.78 436.27 404.41 L 436.20 404.27 L 435.85 402.15 C 436.97 402.09 439.21 401.95 440.32 401.89 C 442.79 401.46 444.64 399.77 446.41 398.13 C 445.44 399.74 445.70 401.81 446.41 403.48 C 446.53 405.69 448.89 404.64 450.36 404.81 L 450.79 404.80 C 451.50 402.65 451.63 400.21 450.69 398.12 C 451.36 398.17 452.70 398.27 453.37 398.32 L 453.34 398.82 C 452.95 401.89 452.89 404.99 452.91 408.09 L 454.08 407.74 C 455.26 407.25 455.57 406.36 455.01 405.08 C 455.51 404.96 456.50 404.74 457.00 404.62 C 459.91 403.94 459.26 400.36 458.22 398.34 C 458.81 397.25 459.44 396.18 460.10 395.12 C 460.11 395.58 460.15 396.50 460.16 396.97 C 459.93 398.67 459.67 400.43 460.04 402.16 C 460.82 403.98 461.33 400.55 461.15 400.02 C 461.08 399.26 460.93 397.72 460.86 396.96 C 460.86 396.49 460.85 395.57 460.84 395.10 L 461.87 395.12 C 462.10 397.00 462.26 398.89 462.44 400.79 C 464.27 400.90 466.12 401.02 467.96 401.15 C 468.00 403.74 468.02 406.33 468.01 408.93 C 447.35 409.01 426.68 409.01 406.02 408.96 C 405.99 406.35 405.99 403.73 406.04 401.13 C 407.85 401.00 409.67 400.87 411.49 400.75 C 411.65 398.86 411.80 396.96 412.03 395.08 Z" />
<path fill="#50007c" d=" M 412.89 395.04 L 414.05 395.04 C 414.06 398.37 414.07 401.71 414.08 405.05 L 412.85 404.96 C 412.86 401.65 412.87 398.34 412.89 395.04 Z" />
<path fill="#000022" d=" M 426.57 395.11 C 429.40 393.46 426.81 398.44 426.57 395.11 Z" />
<path fill="#510000" d=" M 460.10 395.12 L 460.84 395.10 C 460.85 395.57 460.86 396.49 460.86 396.96 L 460.16 396.97 C 460.15 396.50 460.11 395.58 460.10 395.12 Z" />
<path fill="#000000" d=" M 353.68 401.81 C 353.65 399.56 353.72 396.99 355.85 395.64 C 355.00 397.27 353.44 399.30 354.63 401.14 C 355.27 402.10 355.97 403.03 356.67 403.96 C 357.64 403.98 359.59 404.02 360.56 404.04 L 360.80 404.54 C 357.86 405.97 355.21 404.29 353.68 401.81 Z" />
<path fill="#35c0cd" d=" M 355.85 395.64 L 356.39 395.75 C 357.00 397.74 355.77 399.61 354.63 401.14 C 353.44 399.30 355.00 397.27 355.85 395.64 Z" />
<path fill="#519bd6" d=" M 361.28 396.47 C 361.34 396.56 361.48 396.75 361.55 396.85 C 361.48 396.75 361.34 396.56 361.28 396.47 Z" />
<path fill="#720d66" d=" M 460.16 396.97 L 460.86 396.96 C 460.93 397.72 461.08 399.26 461.15 400.02 C 461.33 400.55 460.82 403.98 460.04 402.16 C 459.67 400.43 459.93 398.67 460.16 396.97 Z" />
<path fill="#50007b" d=" M 325.45 397.99 L 326.07 397.93 C 325.83 400.21 326.02 402.52 325.90 404.82 L 325.51 405.03 C 324.20 402.89 324.66 400.22 325.45 397.99 Z" />
<path fill="#b6e9e6" d=" M 326.07 397.93 L 326.72 398.24 C 326.81 398.64 326.99 399.42 327.08 399.82 C 327.28 401.47 327.73 403.90 325.90 404.82 C 326.02 402.52 325.83 400.21 326.07 397.93 Z" />
<path fill="#ff9a40" d=" M 326.72 398.24 L 327.48 398.10 C 327.94 398.76 328.85 400.09 329.30 400.76 L 329.04 401.35 C 328.55 400.97 327.57 400.20 327.08 399.82 C 326.99 399.42 326.81 398.64 326.72 398.24 Z" />
<path fill="#ff9a40" d=" M 335.25 398.38 L 336.26 398.22 L 335.97 398.68 C 335.71 398.93 335.20 399.43 334.95 399.69 L 334.33 400.31 C 334.02 401.40 334.19 402.34 334.85 403.15 L 335.23 403.22 L 335.34 403.87 L 335.47 404.67 C 333.17 403.82 333.67 401.27 333.36 399.32 C 333.83 399.09 334.78 398.62 335.25 398.38 Z" />
<path fill="#000000" d=" M 336.26 398.22 L 336.80 398.15 L 336.65 398.78 L 335.97 398.68 L 336.26 398.22 Z" />
<path fill="#35c0cd" d=" M 336.80 398.15 L 337.48 398.06 C 338.10 398.46 339.33 399.25 339.95 399.65 C 340.02 400.05 340.16 400.85 340.22 401.25 L 339.81 401.37 C 339.29 401.07 338.24 400.49 337.71 400.20 C 337.45 399.84 336.92 399.13 336.65 398.78 L 336.80 398.15 Z" />
<path fill="#ff9a40" d=" M 339.71 397.87 L 340.78 398.16 C 340.94 398.94 341.26 400.49 341.42 401.27 C 341.66 401.41 342.13 401.69 342.37 401.83 C 342.35 402.58 342.29 404.06 342.27 404.80 C 341.50 403.67 340.83 402.47 340.22 401.25 C 340.16 400.85 340.02 400.05 339.95 399.65 L 339.71 397.87 Z" />
<path fill="#35c0cd" d=" M 340.78 398.16 C 342.34 398.42 342.57 400.26 343.10 401.46 L 342.37 401.83 C 342.13 401.69 341.66 401.41 341.42 401.27 C 341.26 400.49 340.94 398.94 340.78 398.16 Z" />
<path fill="#512828" d=" M 344.15 398.14 L 345.00 398.36 C 344.66 398.79 343.98 399.64 343.64 400.07 C 343.77 399.59 344.02 398.63 344.15 398.14 Z" />
<path fill="#7cafc1" d=" M 345.00 398.36 C 345.75 398.91 346.05 399.76 345.91 400.90 C 345.71 401.12 345.31 401.56 345.11 401.77 L 344.03 401.79 C 343.93 401.36 343.74 400.50 343.64 400.07 C 343.98 399.64 344.66 398.79 345.00 398.36 Z" />
<path fill="#c88b44" d=" M 346.86 401.25 C 346.34 399.65 346.78 398.66 348.20 398.26 C 348.03 398.99 347.71 400.45 347.54 401.18 L 346.86 401.25 Z" />
<path fill="#448bc8" d=" M 348.20 398.26 L 348.85 398.19 C 348.70 398.95 348.39 400.48 348.24 401.24 L 347.54 401.18 C 347.71 400.45 348.03 398.99 348.20 398.26 Z" />
<path fill="#b45c3f" d=" M 363.63 399.08 C 363.99 398.86 364.70 398.42 365.06 398.20 C 365.01 398.56 364.91 399.28 364.85 399.65 L 363.95 399.80 L 363.63 399.08 Z" />
<path fill="#000000" d=" M 365.06 398.20 C 365.83 398.21 367.38 398.21 368.16 398.22 C 368.26 398.65 368.47 399.50 368.57 399.93 C 367.36 399.60 366.10 399.34 364.85 399.65 C 364.91 399.28 365.01 398.56 365.06 398.20 Z" />
<path fill="#35c0cd" d=" M 368.16 398.22 L 369.00 398.26 C 369.06 398.72 369.17 399.64 369.22 400.10 L 368.57 399.93 C 368.47 399.50 368.26 398.65 368.16 398.22 Z" />
<path fill="#995000" d=" M 371.10 398.16 C 371.45 398.56 372.15 399.36 372.50 399.76 C 372.29 401.51 372.20 403.35 371.44 404.98 C 370.78 402.76 370.84 400.42 371.10 398.16 Z" />
<path fill="#1b2a3d" d=" M 373.06 399.01 C 373.84 397.73 374.81 397.60 375.95 398.65 L 375.80 399.23 L 375.01 399.41 C 374.52 399.31 373.55 399.11 373.06 399.01 Z" />
<path fill="#000022" d=" M 375.95 398.65 C 377.32 397.86 379.97 397.56 380.01 399.79 L 379.54 399.86 C 378.30 399.60 377.05 399.39 375.80 399.23 L 375.95 398.65 Z" />
<path fill="#000000" d=" M 381.63 400.00 C 382.79 398.50 384.87 396.82 386.28 399.13 C 385.24 398.99 382.09 398.95 383.09 400.69 C 384.36 401.69 386.23 400.69 386.28 399.13 C 386.67 400.02 387.06 400.93 387.43 401.85 C 385.66 401.40 384.37 401.78 383.58 402.97 C 384.07 404.98 386.36 403.19 387.70 403.36 C 386.34 404.17 385.01 405.50 383.30 404.88 C 381.98 403.60 382.07 401.64 381.63 400.00 Z" />
<path fill="#000000" d=" M 419.28 401.14 C 420.13 398.86 421.78 397.32 424.48 398.14 C 424.76 400.20 424.83 402.28 424.81 404.37 L 423.73 404.48 C 423.89 402.73 424.41 400.92 423.68 399.24 C 422.65 398.93 421.74 399.10 420.95 399.78 C 419.38 400.76 420.01 403.10 420.96 404.34 C 420.24 403.36 419.73 402.25 419.28 401.14 Z" />
<path fill="#35c0cd" d=" M 424.48 398.14 C 424.71 398.13 425.16 398.11 425.39 398.10 C 425.61 400.68 425.62 403.30 425.19 405.88 C 425.09 405.50 424.90 404.74 424.81 404.37 C 424.83 402.28 424.76 400.20 424.48 398.14 Z" />
<path fill="#50007b" d=" M 427.23 398.13 L 427.73 398.23 C 427.94 399.52 428.07 400.83 428.12 402.16 C 428.31 402.73 427.87 406.13 427.01 404.27 C 426.61 402.24 426.76 400.12 427.23 398.13 Z" />
<path fill="#51007d" d=" M 429.08 398.96 L 429.49 399.19 L 429.60 399.19 L 429.31 399.26 L 429.08 398.96 Z" />
<path fill="#ff9a40" d=" M 433.24 398.10 L 433.94 398.40 L 434.20 398.59 L 434.45 398.56 C 435.06 398.46 436.27 398.26 436.88 398.15 L 436.95 398.99 L 436.18 398.85 L 436.13 398.90 C 435.36 400.16 435.07 401.56 435.46 403.00 L 436.20 404.27 L 436.27 404.41 L 436.55 404.97 C 434.77 403.99 434.46 401.87 433.85 400.14 L 433.73 399.78 L 433.42 399.98 L 433.45 400.45 C 433.22 400.97 432.77 402.00 432.54 402.52 C 432.14 402.91 431.35 403.68 430.95 404.07 L 430.75 404.53 C 429.12 403.28 429.08 401.11 429.31 399.26 L 429.60 399.19 C 429.80 399.80 430.20 401.00 430.40 401.60 L 431.06 401.59 C 431.39 401.54 432.05 401.44 432.38 401.39 C 432.60 400.57 433.02 398.93 433.24 398.10 Z" />
<path fill="#000000" d=" M 433.94 398.40 C 434.07 398.44 434.32 398.52 434.45 398.56 L 434.20 398.59 L 433.94 398.40 Z" />
<path fill="#000022" d=" M 436.88 398.15 C 437.30 398.19 438.16 398.26 438.58 398.29 L 438.79 398.98 C 438.33 398.99 437.41 398.99 436.95 398.99 L 436.88 398.15 Z" />
<path fill="#50007c" d=" M 446.41 398.13 L 446.90 398.17 C 447.28 399.93 447.18 401.82 446.41 403.48 C 445.70 401.81 445.44 399.74 446.41 398.13 Z" />
<path fill="#000000" d=" M 446.90 398.17 L 447.48 398.24 C 447.61 400.21 447.59 402.18 447.59 404.15 C 448.04 404.00 448.93 403.68 449.38 403.52 L 449.79 403.38 C 449.93 403.74 450.21 404.45 450.36 404.81 C 448.89 404.64 446.53 405.69 446.41 403.48 C 447.18 401.82 447.28 399.93 446.90 398.17 Z" />
<path fill="#ff9a40" d=" M 449.73 398.05 L 450.24 398.09 C 450.28 399.85 450.17 401.64 449.79 403.38 L 449.38 403.52 C 449.01 401.72 448.64 399.67 449.73 398.05 Z" />
<path fill="#4b007b" d=" M 450.24 398.09 L 450.69 398.12 C 451.63 400.21 451.50 402.65 450.79 404.80 L 450.36 404.81 C 450.21 404.45 449.93 403.74 449.79 403.38 C 450.17 401.64 450.28 399.85 450.24 398.09 Z" />
<path fill="#000022" d=" M 453.37 398.32 C 454.61 398.14 455.85 398.11 457.10 398.22 L 457.07 398.90 C 456.50 399.06 455.37 399.36 454.80 399.51 L 453.95 399.44 L 453.34 398.82 L 453.37 398.32 Z" />
<path fill="#35c0cd" d=" M 457.10 398.22 C 457.38 398.25 457.94 398.31 458.22 398.34 C 459.26 400.36 459.91 403.94 457.00 404.62 L 457.13 403.94 L 457.66 403.84 L 457.74 403.19 C 457.71 402.32 457.67 400.58 457.64 399.72 C 457.50 399.51 457.21 399.11 457.07 398.90 L 457.10 398.22 Z" />
<path fill="#e6e6e6" d=" M 335.97 398.68 L 336.65 398.78 C 336.92 399.13 337.45 399.84 337.71 400.20 C 337.00 401.16 336.20 401.19 335.29 400.28 L 334.95 399.69 C 335.20 399.43 335.71 398.93 335.97 398.68 Z" />
<path fill="#934200" d=" M 375.01 399.41 L 375.80 399.23 C 375.91 399.96 376.13 401.41 376.23 402.14 C 376.45 402.70 375.89 406.13 375.14 404.21 C 374.87 402.62 374.90 401.00 375.01 399.41 Z" />
<path fill="#eeeeee" d=" M 383.09 400.69 C 382.09 398.95 385.24 398.99 386.28 399.13 C 386.23 400.69 384.36 401.69 383.09 400.69 Z" />
<path fill="#fefefe" d=" M 420.95 399.78 C 421.74 399.10 422.65 398.93 423.68 399.24 C 424.41 400.92 423.89 402.73 423.73 404.48 L 422.99 404.33 L 421.76 403.97 C 421.60 402.54 421.30 401.15 420.95 399.78 Z" />
<path fill="#4481be" d=" M 429.60 399.19 C 430.79 399.36 431.28 400.16 431.06 401.59 L 430.40 401.60 C 430.20 401.00 429.80 399.80 429.60 399.19 Z" />
<path fill="#984f00" d=" M 453.34 398.82 L 453.95 399.44 C 453.82 400.75 453.87 402.06 454.09 403.37 C 454.14 403.72 454.23 404.42 454.28 404.77 C 454.23 405.51 454.13 407.00 454.08 407.74 L 452.91 408.09 C 452.89 404.99 452.95 401.89 453.34 398.82 Z" />
<path fill="#35c0cd" d=" M 453.95 399.44 L 454.80 399.51 C 455.31 400.76 455.24 402.01 454.59 403.26 L 454.09 403.37 C 453.87 402.06 453.82 400.75 453.95 399.44 Z" />
<path fill="#eeeeee" d=" M 454.80 399.51 C 455.37 399.36 456.50 399.06 457.07 398.90 L 457.04 399.64 C 457.06 400.54 457.09 402.32 457.11 403.21 L 457.13 403.94 C 456.50 403.77 455.22 403.43 454.59 403.26 C 455.24 402.01 455.31 400.76 454.80 399.51 Z" />
<path fill="#000000" d=" M 457.07 398.90 C 457.21 399.11 457.50 399.51 457.64 399.72 L 457.04 399.64 L 457.07 398.90 Z" />
<path fill="#000022" d=" M 329.30 400.76 L 329.79 400.94 C 330.09 401.06 330.70 401.31 331.00 401.43 C 331.26 401.60 331.77 401.94 332.02 402.11 C 331.92 402.79 331.72 404.15 331.62 404.83 L 331.03 404.81 C 330.61 404.36 329.77 403.44 329.35 402.98 C 329.34 402.78 329.30 402.39 329.28 402.20 L 329.04 401.35 L 329.30 400.76 Z" />
<path fill="#000022" d=" M 334.33 400.31 L 334.95 399.69 L 335.29 400.28 C 336.20 401.19 337.00 401.16 337.71 400.20 C 338.24 400.49 339.29 401.07 339.81 401.37 C 338.70 401.70 336.49 402.37 335.38 402.71 L 335.23 403.22 L 334.85 403.15 C 334.19 402.34 334.02 401.40 334.33 400.31 Z" />
<path fill="#b67c00" d=" M 358.41 400.19 L 358.94 400.13 L 358.90 400.76 L 358.39 400.63 L 358.41 400.19 Z" />
<path fill="#00001b" d=" M 358.94 400.13 C 359.70 400.22 361.21 400.40 361.96 400.49 L 361.68 401.13 L 360.92 401.31 C 360.41 401.17 359.41 400.90 358.90 400.76 L 358.94 400.13 Z" />
<path fill="#98d3e9" d=" M 361.96 400.49 C 362.28 400.67 362.92 401.04 363.23 401.23 C 363.15 401.87 362.99 403.15 362.91 403.78 L 361.93 403.79 L 361.60 403.12 C 361.62 402.63 361.66 401.63 361.68 401.13 L 361.96 400.49 Z" />
<path fill="#2f002d" d=" M 368.57 399.93 L 369.22 400.10 C 369.13 401.33 369.05 402.57 368.99 403.81 C 368.74 403.62 368.24 403.22 367.99 403.02 L 367.58 402.39 C 367.00 402.25 365.84 401.98 365.26 401.84 L 365.16 401.37 C 366.36 401.05 367.50 400.57 368.57 399.93 Z" />
<path fill="#984f00" d=" M 379.54 399.86 L 380.01 399.79 C 380.41 401.44 380.27 403.18 379.91 404.84 C 378.06 404.36 379.23 401.24 379.54 399.86 Z" />
<path fill="#4382b8" d=" M 420.96 404.34 C 420.01 403.10 419.38 400.76 420.95 399.78 C 421.30 401.15 421.60 402.54 421.76 403.97 L 420.96 404.34 Z" />
<path fill="#5099d4" d=" M 433.42 399.98 L 433.73 399.78 L 433.85 400.14 L 433.45 400.45 L 433.42 399.98 Z" />
<path fill="#000022" d=" M 435.46 403.00 C 435.07 401.56 435.36 400.16 436.13 398.90 L 435.81 401.19 C 437.93 401.34 439.30 400.46 439.94 398.55 C 440.04 399.38 440.23 401.05 440.32 401.89 C 439.21 401.95 436.97 402.09 435.85 402.15 L 436.20 404.27 L 435.46 403.00 Z" />
<path fill="#daa25e" d=" M 457.04 399.64 L 457.64 399.72 C 457.67 400.58 457.71 402.32 457.74 403.19 L 457.11 403.21 C 457.09 402.32 457.06 400.54 457.04 399.64 Z" />
<path fill="#7b0050" d=" M 341.42 401.27 C 341.66 401.41 342.13 401.69 342.37 401.83 C 342.13 401.69 341.66 401.41 341.42 401.27 Z" />
<path fill="#7b007b" d=" M 345.11 401.77 C 345.31 401.56 345.71 401.12 345.91 400.90 L 345.98 401.51 L 345.11 401.77 Z" />
<path fill="#7b007b" d=" M 346.86 401.25 L 347.54 401.18 L 347.73 401.83 L 346.97 401.96 L 346.86 401.25 Z" />
<path fill="#7b0050" d=" M 360.92 401.31 L 361.68 401.13 C 361.66 401.63 361.62 402.63 361.60 403.12 L 360.89 403.23 C 360.90 402.75 360.91 401.79 360.92 401.31 Z" />
<path fill="#e9d1a5" d=" M 363.23 401.23 C 363.71 401.26 364.68 401.33 365.16 401.37 L 365.26 401.84 C 364.93 402.33 364.26 403.31 363.93 403.80 L 362.91 403.78 C 362.99 403.15 363.15 401.87 363.23 401.23 Z" />
<path fill="#b57b00" d=" M 329.28 402.20 C 329.30 402.39 329.34 402.78 329.35 402.98 C 329.34 402.78 329.30 402.39 329.28 402.20 Z" />
<path fill="#000000" d=" M 342.37 401.83 L 343.10 401.46 L 344.03 401.79 L 344.12 402.67 C 343.79 403.19 343.12 404.23 342.78 404.75 L 342.27 404.80 C 342.29 404.06 342.35 402.58 342.37 401.83 Z" />
<path fill="#c29865" d=" M 345.11 401.77 L 345.98 401.51 L 346.97 401.96 L 346.79 402.82 C 346.59 403.31 346.20 404.28 346.01 404.76 C 344.93 404.16 344.63 403.16 345.11 401.77 Z" />
<path fill="#4da1cf" d=" M 346.97 401.96 L 347.73 401.83 C 348.53 403.29 348.28 404.25 346.97 404.70 C 346.93 404.23 346.83 403.29 346.79 402.82 L 346.97 401.96 Z" />
<path fill="#280065" d=" M 363.93 403.80 C 364.26 403.31 364.93 402.33 365.26 401.84 C 365.18 402.28 365.02 403.16 364.94 403.60 L 363.93 403.80 Z" />
<path fill="#cee4de" d=" M 365.26 401.84 C 365.84 401.98 367.00 402.25 367.58 402.39 L 367.99 403.02 C 367.70 403.32 367.11 403.91 366.82 404.21 C 366.35 404.06 365.41 403.75 364.94 403.60 C 365.02 403.16 365.18 402.28 365.26 401.84 Z" />
<path fill="#ff9a40" d=" M 329.35 402.98 C 329.77 403.44 330.61 404.36 331.03 404.81 L 330.18 404.80 C 329.97 404.34 329.56 403.43 329.35 402.98 Z" />
<path fill="#000022" d=" M 335.34 403.87 C 336.61 403.65 337.89 403.50 339.18 403.40 C 338.45 404.55 336.76 405.83 335.47 404.67 L 335.34 403.87 Z" />
<path fill="#35c0cd" d=" M 342.78 404.75 C 343.12 404.23 343.79 403.19 344.12 402.67 C 344.01 403.16 343.77 404.15 343.65 404.64 L 342.78 404.75 Z" />
<path fill="#28284f" d=" M 346.01 404.76 C 346.20 404.28 346.59 403.31 346.79 402.82 C 346.83 403.29 346.93 404.23 346.97 404.70 L 346.01 404.76 Z" />
<path fill="#ff9a40" d=" M 360.40 403.55 L 360.89 403.23 L 361.11 403.83 L 360.56 404.04 L 360.40 403.55 Z" />
<path fill="#00004f" d=" M 360.89 403.23 L 361.60 403.12 L 361.93 403.79 L 361.11 403.83 L 360.89 403.23 Z" />
<path fill="#ff9a40" d=" M 366.82 404.21 C 367.11 403.91 367.70 403.32 367.99 403.02 C 368.24 403.22 368.74 403.62 368.99 403.81 L 368.93 404.61 C 368.47 404.69 367.55 404.85 367.09 404.93 L 366.82 404.21 Z" />
<path fill="#000022" d=" M 430.95 404.07 C 431.35 403.68 432.14 402.91 432.54 402.52 C 432.30 403.00 431.83 403.97 431.60 404.46 L 430.95 404.07 Z" />
<path fill="#000022" d=" M 436.27 404.41 C 437.50 403.78 438.81 403.41 440.19 403.30 C 439.55 404.58 437.99 405.74 436.55 404.97 L 436.27 404.41 Z" />
<path fill="#000000" d=" M 454.09 403.37 L 454.59 403.26 C 455.22 403.43 456.50 403.77 457.13 403.94 L 457.00 404.62 C 456.50 404.74 455.51 404.96 455.01 405.08 L 454.28 404.77 C 454.23 404.42 454.14 403.72 454.09 403.37 Z" />
<path fill="#7b0000" d=" M 457.11 403.21 L 457.74 403.19 L 457.66 403.84 L 457.13 403.94 L 457.11 403.21 Z" />
<path fill="#35c0cd" d=" M 360.56 404.04 L 361.11 403.83 L 361.28 404.44 L 360.80 404.54 L 360.56 404.04 Z" />
<path fill="#000000" d=" M 363.93 403.80 L 364.94 403.60 C 365.41 403.75 366.35 404.06 366.82 404.21 L 367.09 404.93 C 365.64 405.36 364.59 404.98 363.93 403.80 Z" />
<path fill="#280000" d=" M 420.96 404.34 L 421.76 403.97 L 422.99 404.33 L 423.03 405.06 C 422.51 404.88 421.48 404.52 420.96 404.34 Z" />
<path fill="#35c0cd" d=" M 422.99 404.33 L 423.73 404.48 L 423.63 405.18 L 423.03 405.06 L 422.99 404.33 Z" />
<path fill="#ff9a40" d=" M 423.73 404.48 L 424.81 404.37 C 424.90 404.74 425.09 405.50 425.19 405.88 L 424.47 405.84 L 423.63 405.18 L 423.73 404.48 Z" />
<path fill="#35c0cd" d=" M 430.95 404.07 L 431.60 404.46 L 431.17 404.93 L 430.75 404.53 L 430.95 404.07 Z" />
<path fill="#4f0000" d=" M 460.35 404.76 C 460.50 404.62 460.78 404.34 460.93 404.20 L 460.93 404.74 L 460.35 404.76 Z" />
<path fill="#7ab4e7" d=" M 460.93 404.20 C 460.93 404.33 460.93 404.60 460.93 404.74 L 460.93 404.20 Z" />
<path fill="#7ab3e6" d=" M 454.28 404.77 L 455.01 405.08 C 455.57 406.36 455.26 407.25 454.08 407.74 C 454.13 407.00 454.23 405.51 454.28 404.77 Z" />
<path fill="#000000" d=" M 421.37 408.02 C 418.86 408.40 419.10 404.73 421.40 406.64 C 421.39 406.99 421.37 407.68 421.37 408.02 Z" />
<path fill="#000022" d=" M 421.40 406.64 C 422.46 406.55 423.46 406.17 424.47 405.84 L 425.19 405.88 C 425.13 407.73 422.94 408.63 421.37 408.02 C 421.37 407.68 421.39 406.99 421.40 406.64 Z" />
</svg>
